<svg viewBox="0 0 120 120" fill="none" xmlns="http://www.w3.org/2000/svg">
<path d="M0 60C0 26.8629 26.8629 0 60 0V0C93.1371 0 120 26.8629 120 60V60C120 93.1371 93.1371 120 60 120V120C26.8629 120 0 93.1371 0 60V60Z" fill="black"/>
<path d="M0 60C0 26.8629 26.8629 0 60 0V0C93.1371 0 120 26.8629 120 60V60C120 93.1371 93.1371 120 60 120V120C26.8629 120 0 93.1371 0 60V60Z" fill="black"/>
<path d="M68.8942 15.8738L71.4905 21.9551C76.5862 33.8952 86.0972 43.4062 98.0376 48.5019L104.119 51.0984C105.71 51.7768 107.002 52.7502 108 53.9094C104.971 32.1951 87.7972 15.0188 66.083 11.9927C67.2399 12.9877 68.2155 14.2822 68.8942 15.8738Z" fill="#A6A6A6"/>
<path d="M15.8757 51.0984L21.9571 48.5019C33.8976 43.4061 43.4081 33.8952 48.5065 21.9551L51.1001 15.8737C51.7813 14.2821 52.7547 12.9877 53.9116 11.9927C32.1971 15.0188 15.0232 32.1951 11.9946 53.9094C12.9919 52.7502 14.2843 51.7768 15.8757 51.0984L15.8757 51.0984Z" fill="#A6A6A6"/>
<path d="M104.119 68.8992L98.0376 71.4956C86.0972 76.5914 76.5862 86.1045 71.4905 98.0449L68.8942 104.124C68.2155 105.715 67.2399 107.01 66.083 108.007C87.7972 104.979 104.971 87.8024 108 66.0879C107.002 67.2472 105.71 68.2206 104.119 68.8992Z" fill="#A6A6A6"/>
<path d="M51.1001 104.124L48.5065 98.0449C43.4082 86.1045 33.8976 76.5915 21.9571 71.4956L15.8757 68.8992C14.2843 68.2205 12.9919 67.2472 11.9946 66.0879C15.0232 87.8024 32.1971 104.979 53.9116 108.007C52.7548 107.01 51.7813 105.715 51.1001 104.124H51.1001Z" fill="#A6A6A6"/>
<path d="M38.557 55.3757L41.4621 54.1351C47.1647 51.7003 51.7086 47.1589 54.1432 41.4562L55.3819 38.551C57.1187 34.4824 62.887 34.4824 64.6238 38.551L65.8622 41.4562C68.2972 47.1589 72.8409 51.7003 78.5435 54.1351L81.4487 55.3757C85.5171 57.1126 85.5171 62.8786 81.4487 64.6156L78.5435 65.8563C72.8409 68.2907 68.2972 72.8324 65.8622 78.5375L64.6238 81.4403C62.887 85.5085 57.1187 85.5085 55.3819 81.4403L54.1432 78.5375C51.7086 72.8324 47.1647 68.2907 41.4621 65.8563L38.557 64.6156C34.4882 62.8786 34.4882 57.1126 38.557 55.3757Z" fill="white"/>
</svg>
