<svg width="90" height="30" viewBox="0 0 90 30" fill="none" xmlns="http://www.w3.org/2000/svg">
<path d="M45.5 7.1V14H43.7V7.1H41.288V5.624H47.912V7.1H45.5ZM48.9153 14V5.624H54.2673V7.1H50.7153V9.02H54.1473V10.496H50.7153V12.524H54.2673V14H48.9153ZM58.3786 14.144C57.6746 14.144 57.0626 14.028 56.5426 13.796C56.0226 13.564 55.6026 13.248 55.2826 12.848L56.3266 11.696C56.6306 12.032 56.9626 12.28 57.3226 12.44C57.6906 12.6 58.0626 12.68 58.4386 12.68C58.8706 12.68 59.1986 12.584 59.4226 12.392C59.6466 12.2 59.7586 11.924 59.7586 11.564C59.7586 11.268 59.6706 11.044 59.4946 10.892C59.3266 10.74 59.0386 10.632 58.6306 10.568L57.7546 10.424C57.0026 10.296 56.4586 10.02 56.1226 9.596C55.7866 9.164 55.6186 8.64 55.6186 8.024C55.6186 7.216 55.8826 6.592 56.4106 6.152C56.9386 5.704 57.6786 5.48 58.6306 5.48C59.2786 5.48 59.8426 5.58 60.3226 5.78C60.8026 5.98 61.1906 6.252 61.4866 6.596L60.4666 7.736C60.2426 7.488 59.9786 7.296 59.6746 7.16C59.3706 7.016 59.0266 6.944 58.6426 6.944C57.8346 6.944 57.4306 7.276 57.4306 7.94C57.4306 8.228 57.5186 8.444 57.6946 8.588C57.8786 8.732 58.1746 8.84 58.5826 8.912L59.4586 9.068C60.1386 9.188 60.6626 9.444 61.0306 9.836C61.3986 10.228 61.5826 10.756 61.5826 11.42C61.5826 11.812 61.5146 12.176 61.3786 12.512C61.2426 12.84 61.0386 13.128 60.7666 13.376C60.4946 13.616 60.1586 13.804 59.7586 13.94C59.3666 14.076 58.9066 14.144 58.3786 14.144ZM66.3659 7.1V14H64.5659V7.1H62.1539V5.624H68.7779V7.1H66.3659ZM71.2213 8.432H71.0893V14H69.5533V5.624H71.7133L73.6213 11.192H73.7533V5.624H75.2893V14H73.1293L71.2213 8.432ZM76.7366 14V5.624H82.0886V7.1H78.5366V9.02H81.9686V10.496H78.5366V12.524H82.0886V14H76.7366ZM87.2319 7.1V14H85.4319V7.1H83.0199V5.624H89.6439V7.1H87.2319Z" fill="#1A202C"/>
<path d="M41.996 17.624H44.888C45.648 17.624 46.236 17.82 46.652 18.212C47.076 18.604 47.288 19.14 47.288 19.82C47.288 20.308 47.168 20.696 46.928 20.984C46.688 21.272 46.364 21.476 45.956 21.596V21.656C46.444 21.768 46.836 21.984 47.132 22.304C47.428 22.616 47.576 23.06 47.576 23.636C47.576 23.98 47.52 24.296 47.408 24.584C47.296 24.872 47.136 25.124 46.928 25.34C46.72 25.548 46.468 25.712 46.172 25.832C45.884 25.944 45.564 26 45.212 26H41.996V17.624ZM44.804 24.968C45.252 24.968 45.596 24.876 45.836 24.692C46.076 24.508 46.196 24.212 46.196 23.804V23.372C46.196 22.964 46.076 22.668 45.836 22.484C45.596 22.3 45.252 22.208 44.804 22.208H43.316V24.968H44.804ZM44.612 21.224C45.036 21.224 45.356 21.144 45.572 20.984C45.796 20.816 45.908 20.54 45.908 20.156V19.724C45.908 19.34 45.796 19.068 45.572 18.908C45.356 18.74 45.036 18.656 44.612 18.656H43.316V21.224H44.612ZM50.2953 26H48.9633V17.624H52.0953C52.8953 17.624 53.5033 17.848 53.9193 18.296C54.3433 18.744 54.5553 19.36 54.5553 20.144C54.5553 20.784 54.3993 21.312 54.0873 21.728C53.7753 22.144 53.3273 22.4 52.7433 22.496L54.6753 26H53.1873L51.4113 22.616H50.2953V26ZM51.9033 21.536C52.7353 21.536 53.1513 21.156 53.1513 20.396V19.88C53.1513 19.12 52.7353 18.74 51.9033 18.74H50.2953V21.536H51.9033ZM55.8706 26V24.98H57.8386V18.644H55.8706V17.624H61.1506V18.644H59.1826V24.98H61.1506V26H55.8706ZM62.8499 17.624H65.3459C66.4179 17.624 67.2099 17.98 67.7219 18.692C68.2419 19.404 68.5019 20.444 68.5019 21.812C68.5019 23.18 68.2419 24.22 67.7219 24.932C67.2099 25.644 66.4179 26 65.3459 26H62.8499V17.624ZM65.2619 24.896C65.8779 24.896 66.3339 24.692 66.6299 24.284C66.9339 23.868 67.0859 23.276 67.0859 22.508V21.116C67.0859 20.348 66.9339 19.76 66.6299 19.352C66.3339 18.936 65.8779 18.728 65.2619 18.728H64.1819V24.896H65.2619ZM73.9813 24.848H73.8973C73.8253 25.016 73.7373 25.18 73.6333 25.34C73.5373 25.492 73.4133 25.628 73.2613 25.748C73.1173 25.868 72.9413 25.964 72.7333 26.036C72.5253 26.108 72.2853 26.144 72.0133 26.144C71.1413 26.144 70.4853 25.772 70.0453 25.028C69.6053 24.284 69.3853 23.232 69.3853 21.872C69.3853 20.448 69.6373 19.36 70.1413 18.608C70.6453 17.856 71.4173 17.48 72.4573 17.48C72.8653 17.48 73.2213 17.536 73.5253 17.648C73.8373 17.76 74.1013 17.912 74.3173 18.104C74.5333 18.288 74.7133 18.508 74.8573 18.764C75.0013 19.012 75.1173 19.276 75.2053 19.556L73.9933 19.964C73.9293 19.78 73.8573 19.608 73.7773 19.448C73.6973 19.28 73.5973 19.132 73.4773 19.004C73.3653 18.876 73.2253 18.776 73.0573 18.704C72.8973 18.632 72.7013 18.596 72.4693 18.596C71.8853 18.596 71.4613 18.824 71.1973 19.28C70.9413 19.728 70.8133 20.336 70.8133 21.104V22.436C70.8133 22.82 70.8413 23.172 70.8973 23.492C70.9533 23.812 71.0453 24.088 71.1733 24.32C71.3093 24.544 71.4813 24.72 71.6893 24.848C71.9053 24.976 72.1653 25.04 72.4693 25.04C72.9573 25.04 73.3293 24.896 73.5853 24.608C73.8493 24.312 73.9813 23.936 73.9813 23.48V22.724H72.3613V21.716H75.2053V26H73.9813V24.848ZM76.8086 26V17.624H82.0526V18.752H78.1526V21.188H81.9086V22.316H78.1526V24.872H82.0526V26H76.8086Z" fill="#1A202C"/>
<path d="M17.0357 19.9992L0 9.96824L16.9299 0L33.9656 10.0309L17.0357 19.9992Z" fill="#1A202C"/>
<path d="M28.322 16.6891L26.2049 17.9354L29.7531 20.0244L26.227 22.1008L28.3564 23.3546L33.9973 20.0319L28.3196 16.6891H28.322ZM20.5837 25.4235L17.0551 27.4999L13.5068 25.411L11.3896 26.6573L17.0674 30.0001L22.7107 26.6774L20.5812 25.4235H20.5837ZM7.80694 17.9003L5.67749 16.6465L0.0341797 19.9692L5.71437 23.3145L7.83153 22.0682L4.2808 19.9767L7.8094 17.9003H7.80694ZM16.9641 10.001L11.3233 13.3237L13.4527 14.5776L16.9789 12.5012L20.5296 14.5926L22.6467 13.3463L16.9666 10.001H16.9641Z" fill="#1A202C"/>
</svg>
