<?xml version="1.0" standalone="no"?>
  <!DOCTYPE svg PUBLIC "-//W3C//DTD SVG 1.1//EN" "http://www.w3.org/Graphics/SVG/1.1/DTD/svg11.dtd" >
  <svg>
  <metadata>
  Created by font-carrier
  </metadata>
  <defs>
  <font id="UniNeueHeavy-Italic" horiz-adv-x="1154" vert-adv-y="1154" >
    <font-face
      
      font-family="Uni Neue Heavy"
      
      font-weight="400"
      
      font-stretch="normal"
      
      units-per-em="1000"
      
      ascent="1050"
      
      descent="-300"
      
    />
      <missing-glyph />

      

      
      <glyph glyph-name="uni21" unicode="&#x21;" d="M173 220L80 220Q61 220 64 238L105 529L135 699Q138 715 154 715L267 715Q285 715 282 696L253 526L192 235Q189 220 173 220M183 65Q177 31 151.50 9Q126-13 90-13Q50-13 28 15.50Q6 44 14 86Q21 121 46 142.50Q71 164 107 164Q148 164 169.50 136Q191 108 183 65Z"  horiz-adv-x="268" vert-adv-y="1000"  />

      
      <glyph glyph-name="uni22" unicode="&#x22;" d="M258 696L190 446Q186 432 170 432L96 432Q76 432 81 451L130 700Q133 715 149 715L244 715Q253 715 257 709.50Q261 704 258 696M426 696L358 446Q355 432 339 432L264 432Q246 432 249 451L298 700Q301 715 317 715L412 715Q421 715 425 709.50Q429 704 426 696Z"  horiz-adv-x="389" vert-adv-y="1000"  />

      
      <glyph glyph-name="uni23" unicode="&#x23;" d="M195 0L103 0Q94 0 90 5.50Q86 11 89 19L147 181L31 181Q10 181 17 200L43 278Q48 293 63 293L184 293L228 420L112 420Q103 420 99 425.50Q95 431 98 439L124 518Q129 532 144 532L265 532L326 701Q331 715 346 715L437 715Q458 715 451 696L393 532L513 532L573 701Q578 715 593 715L685 715Q694 715 698 709.50Q702 704 699 696L641 532L756 532Q766 532 770 526.50Q774 521 771 513L745 434Q740 420 725 420L604 420L559 293L674 293Q696 293 689 273L663 195Q659 181 643 181L522 181L463 14Q458 0 443 0L351 0Q342 0 338 5.50Q334 11 337 19L395 181L274 181L215 14Q210 0 195 0M356 420L311 293L432 293L476 420L356 420Z"  horiz-adv-x="754" vert-adv-y="1000"  />

      
      <glyph glyph-name="uni24" unicode="&#x24;" d="M273-104L186-104Q168-104 170-85L184-6Q89 12 9 84Q-4 95 8 109L80 194Q90 207 104 197Q185 131 272 131Q319 131 352 149.50Q385 168 391 204Q397 238 367.50 257.50Q338 277 272 295Q179 322 123.50 381.50Q68 441 84 538Q99 625 160 671Q221 717 312 726L325 797Q328 813 344 813L431 813Q449 813 446 794L434 722Q523 707 594 652Q608 643 596 628L518 539Q509 528 494 537Q421 586 342 586Q250 586 239 523Q234 490 261 472Q288 454 346 437Q390 423 421.50 408.50Q453 394 490.50 365.50Q528 337 543 291.50Q558 246 547 186Q512 11 305-10L292-88Q289-104 273-104Z"  horiz-adv-x="587" vert-adv-y="1000"  />

      
      <glyph glyph-name="uni25" unicode="&#x25;" d="M352 477Q339 405 295.50 369Q252 333 186 333Q125 333 90 374.50Q55 416 67 480L85 578Q98 648 143 684.50Q188 721 253 721Q312 721 347 678.50Q382 636 370 575L352 477M193 0L104 0Q93 0 90 6Q87 12 94 21L629 698Q638 708 650 708L739 708Q750 708 753 702Q756 696 749 687L214 10Q205 0 193 0M169 474Q161 429 200 429Q239 429 248 477L268 580Q272 602 263.50 613.50Q255 625 238 625Q220 625 206 612.50Q192 600 188 577L169 474M761 137Q748 65 704.50 29Q661-7 595-7Q534-7 499.50 35Q465 77 476 140L494 238Q506 307 551 343.50Q596 380 661 380Q721 380 755.50 338.50Q790 297 779 235L761 137M578 134Q574 112 583 100.50Q592 89 609 89Q627 89 640.50 101.50Q654 114 658 137L677 240Q681 261 672.50 273Q664 285 647 285Q629 285 615 272.50Q601 260 597 237L578 134Z"  horiz-adv-x="812" vert-adv-y="1000"  />

      
      <glyph glyph-name="uni26" unicode="&#x26;" d="M374 53Q293-10 198-10Q115-10 58.50 49Q2 108 18 199Q39 317 180 404Q135 487 148 558Q162 634 219.50 681Q277 728 359 728Q434 728 476.50 674.50Q519 621 507 548Q488 441 355 358Q391 295 406 267Q420 286 456 338Q464 352 479 344L553 304Q567 296 560 281Q517 211 472 154Q486 128 513.50 81Q541 34 548 21Q554 12 550.50 6Q547 0 537 0L416 0Q402 0 395 12Q381 40 374 53M158 198Q152 165 170.50 144Q189 123 225 123Q270 123 314 162Q286 212 243 291Q166 243 158 198M277 551Q270 518 295 469Q373 512 379 550Q382 577 371.50 593.50Q361 610 338 610Q313 610 297 594Q281 578 277 551Z"  horiz-adv-x="598" vert-adv-y="1000"  />

      
      <glyph glyph-name="uni27" unicode="&#x27;" d="M258 696L190 446Q187 432 171 432L96 432Q76 432 81 451L130 700Q133 715 149 715L243 715Q263 715 258 696Z"  horiz-adv-x="221" vert-adv-y="1000"  />

      
      <glyph glyph-name="uni28" unicode="&#x28;" d="M215-116L116-116Q100-116 96-102Q13 136 55 373Q94 598 255 818Q262 828 276 828L379 828Q390 828 393 822Q396 816 389 807Q224 581 185 357Q165 246 176.50 127Q188 8 229-96Q236-116 215-116Z"  horiz-adv-x="306" vert-adv-y="1000"  />

      
      <glyph glyph-name="uni29" unicode="&#x29;" d="M124 829L223 829Q239 829 243 815Q326 577 284 340Q245 115 84-105Q77-115 63-115L-40-115Q-51-115-54-109Q-57-103-50-94Q115 132 154 356Q174 467 162.50 586Q151 705 110 809Q103 829 124 829Z"  horiz-adv-x="306" vert-adv-y="1000"  />

      
      <glyph glyph-name="uni2a" unicode="&#x2a;" d="M163 339L98 390Q84 401 96 414L163 492L89 519Q72 526 79 542L119 624Q126 640 141 633L223 605L241 699Q244 715 259 715L347 715Q365 715 362 696L346 606L435 633Q452 639 456 620L468 538Q471 523 455 517L361 487L402 415Q411 401 396 391L320 338Q305 328 297 344L256 429L187 341Q176 328 163 339Z"  horiz-adv-x="450" vert-adv-y="1000"  />

      
      <glyph glyph-name="uni2b" unicode="&#x2b;" d="M408 401L553 401Q572 401 569 382L551 284Q549 268 533 268L385 268L356 104Q353 88 338 88L237 88Q218 88 221 107L250 268L103 268Q84 268 87 287L105 386Q106 401 123 401L273 401L302 565Q305 581 320 581L421 581Q440 581 437 562L408 401Z"  horiz-adv-x="630" vert-adv-y="1000"  />

      
      <glyph glyph-name="uni2c" unicode="&#x2c;" d="M180 125L59-127Q53-140 39-140L-46-140Q-67-140-60-120L42 132Q48 145 62 145L167 145Q177 145 180.50 139.50Q184 134 180 125Z"  horiz-adv-x="243" vert-adv-y="1000"  />

      
      <glyph glyph-name="uni2d" unicode="&#x2d;" d="M311 231L67 231Q49 231 52 250L70 352Q73 368 88 368L332 368Q350 368 347 349L329 246Q326 231 311 231Z"  horiz-adv-x="386" vert-adv-y="1000"  />

      
      <glyph glyph-name="uni2e" unicode="&#x2e;" d="M178 68Q172 33 146.50 11.50Q121-10 83-10Q43-10 20.50 19Q-2 48 6 90Q13 125 38 146.50Q63 168 100 168Q141 168 163 139.50Q185 111 178 68Z"  horiz-adv-x="245" vert-adv-y="1000"  />

      
      <glyph glyph-name="uni2f" unicode="&#x2f;" d="M517 694L131 12Q125 0 111 0L-2 0Q-12 0-15.50 6Q-19 12-14 21L374 703Q380 715 394 715L505 715Q515 715 518.50 709Q522 703 517 694Z"  horiz-adv-x="469" vert-adv-y="1000"  />

      
      <glyph glyph-name="uni30" unicode="&#x30;" d="M553 247Q530 116 452 51.50Q374-13 258-13Q151-13 89.50 59Q28 131 50 252L89 472Q111 600 189.50 664Q268 728 384 728Q490 728 551.50 657Q613 586 592 468L553 247M203 241Q184 137 279 137Q324 137 356.50 163Q389 189 398 243L439 475Q448 529 426 554Q404 579 361 579Q317 579 285 553Q253 527 243 473L203 241Z"  horiz-adv-x="605" vert-adv-y="1000"  />

      
      <glyph glyph-name="uni31" unicode="&#x31;" d="M262 1L143 1Q125 1 128 20L218 528L122 465Q107 453 99 472L60 559Q53 574 66 582L259 708Q270 715 281 715L385 715Q403 715 401 696L281 16Q278 1 262 1Z"  horiz-adv-x="393" vert-adv-y="1000"  />

      
      <glyph glyph-name="uni32" unicode="&#x32;" d="M455 0L6 0Q-12 0-9 19L6 111Q9 123 18 131L211 302Q311 389 350.50 433.50Q390 478 397 518Q402 548 386.50 565.50Q371 583 331 583Q261 583 183 514Q168 499 159 518L109 606Q101 621 112 630Q219 728 350 728Q455 728 510.50 669.50Q566 611 548 514Q539 456 504 404Q469 352 395 277Q316 201 236 142L477 142Q496 142 493 123L474 16Q471 0 455 0Z"  horiz-adv-x="555" vert-adv-y="1000"  />

      
      <glyph glyph-name="uni33" unicode="&#x33;" d="M513 227Q492 112 415.50 50Q339-12 224-12Q79-12-3 82Q-13 94 0 107L70 187Q82 197 94 185Q147 134 236 134Q283 134 317 161.50Q351 189 360 240Q368 284 343 307.50Q318 331 269 331Q238 331 203 322Q185 317 182 334L166 391Q163 404 173 413L353 572L129 572Q111 572 113 591L133 699Q135 715 151 715L554 715Q572 715 570 696L554 611Q553 598 544 591L358 430L358 429Q435 431 481 370.50Q527 310 513 227Z"  horiz-adv-x="555" vert-adv-y="1000"  />

      
      <glyph glyph-name="uni34" unicode="&#x34;" d="M426 0L309 0Q290 0 293 19L312 125L18 125Q0 125 3 144L18 232Q21 244 26 253L330 704Q338 715 352 715L482 715Q492 715 495.50 709Q499 703 493 694L206 265L336 265L372 394Q377 408 392 408L494 408Q512 408 510 389L488 265L542 265Q560 265 557 246L539 141Q536 125 520 125L463 125L444 16Q441 0 426 0Z"  horiz-adv-x="581" vert-adv-y="1000"  />

      
      <glyph glyph-name="uni35" unicode="&#x35;" d="M530 235Q509 118 433 53Q357-12 233-12Q99-12 21 83Q11 95 23 107L89 185Q101 197 114 186Q170 134 255 134Q306 134 338.50 164Q371 194 380 245Q395 337 294 337Q225 337 172 301Q162 294 148 299L79 324Q64 329 67 345L142 699Q145 715 161 715L551 715Q570 715 567 696L548 585Q545 570 529 570L261 570L234 445Q275 467 344 467Q446 467 497 403Q548 339 530 235Z"  horiz-adv-x="568" vert-adv-y="1000"  />

      
      <glyph glyph-name="uni36" unicode="&#x36;" d="M546 231Q526 121 446.50 54Q367-13 254-13Q143-13 85 56Q27 125 45 230L89 474Q110 591 191.50 659.50Q273 728 383 728Q506 728 589 660Q602 650 591 636L519 545Q508 531 495 543Q444 583 367 583Q317 583 283.50 554.50Q250 526 242 475L233 424Q286 456 354 456Q459 456 511.50 395Q564 334 546 231M200 235Q191 186 211 159.50Q231 133 275 133Q321 133 352.50 161Q384 189 393 239Q409 329 314 329Q270 329 239 305Q208 281 200 235Z"  horiz-adv-x="585" vert-adv-y="1000"  />

      
      <glyph glyph-name="uni37" unicode="&#x37;" d="M186 0L53 0Q43 0 39.50 6Q36 12 41 21L370 572L94 572Q75 572 78 591L97 699Q98 715 115 715L558 715Q576 715 573 696L559 611Q558 601 552 591L207 12Q200 0 186 0Z"  horiz-adv-x="518" vert-adv-y="1000"  />

      
      <glyph glyph-name="uni38" unicode="&#x38;" d="M555 213Q535 101 458.50 44Q382-13 256-13Q144-13 80 51Q16 115 34 220Q43 272 75 315.50Q107 359 155 382Q91 439 108 531Q122 617 198 672.50Q274 728 382 728Q489 728 547.50 669Q606 610 590 520Q572 424 494 378Q532 353 548.50 309Q565 265 555 213M227.50 278.50Q227.50 278.50 211.25 266.75Q195 255 188 215Q181 175 204.50 151.50Q228 128 277 128Q327 128 360.50 153Q394 178 402 220Q408 258 383.50 280Q359 302 310 302Q260 302 227.50 278.50M251 513Q245 475 265.50 454.50Q286 434 330 434Q377 434 406.50 456Q436 478 442 515Q448 551 427 571Q406 591 360 591Q316 591 287 570.50Q258 550 251 513Z"  horiz-adv-x="605" vert-adv-y="1000"  />

      
      <glyph glyph-name="uni39" unicode="&#x39;" d="M527 227Q508 113 430 50Q352-13 233-13Q110-13 29 76Q18 87 29 100L98 183Q109 195 123 183Q178 133 253 133Q302 133 334 161Q366 189 375 239L384 290Q332 259 264 259Q168 259 112.50 328Q57 397 76 496Q95 603 172.50 665.50Q250 728 363 728Q478 728 535 659.50Q592 591 572 482L527 227M227 487Q219 442 238 416.50Q257 391 303 391Q348 391 379.50 415Q411 439 419 483L420 489Q428 536 407.50 561.50Q387 587 342 587Q296 587 265.50 560.50Q235 534 227 487Z"  horiz-adv-x="585" vert-adv-y="1000"  />

      
      <glyph glyph-name="uni3a" unicode="&#x3a;" d="M190 68Q184 34 158.50 12Q133-10 98-10Q55-10 33 18Q11 46 19 90Q25 125 50.50 146.50Q76 168 110 168Q153 168 175.50 140Q198 112 190 68M256 434Q250 399 224 377Q198 355 163 355Q121 355 98.50 383.50Q76 412 84 455Q90 490 115.50 512Q141 534 176 534Q218 534 241 505.50Q264 477 256 434Z"  horiz-adv-x="276" vert-adv-y="1000"  />

      
      <glyph glyph-name="uni3b" unicode="&#x3b;" d="M52-138L-33-138Q-54-138-46-118L57 137Q62 151 77 151L182 151Q203 151 195 130L73-125Q66-138 52-138M257 434Q250 400 224.50 378.50Q199 357 163 357Q123 357 101 385.50Q79 414 87 456Q94 492 119 513Q144 534 180 534Q221 534 242.50 505.50Q264 477 257 434Z"  horiz-adv-x="275" vert-adv-y="1000"  />

      
      <glyph glyph-name="uni3c" unicode="&#x3c;" d="M505 204L484 86Q481 65 462 76L96 282Q84 289 87 304L99 370Q102 383 114 389L556 598Q565 603 570.50 598.50Q576 594 574 584L552 462Q549 450 536 444L262 338L494 226Q508 218 505 204Z"  horiz-adv-x="630" vert-adv-y="1000"  />

      
      <glyph glyph-name="uni3d" unicode="&#x3d;" d="M551 371L121 371Q103 371 106 390L124 494Q127 509 143 509L572 509Q591 509 588 490L570 387Q567 371 551 371M514 161L83 161Q64 161 67 179L86 283Q89 298 104 298L535 298Q553 298 550 279L532 176Q529 161 514 161Z"  horiz-adv-x="630" vert-adv-y="1000"  />

      
      <glyph glyph-name="uni3e" unicode="&#x3e;" d="M544 288L102 77Q92 73 86.50 77Q81 81 83 92L106 214Q107 226 121 232L395 345L164 450Q151 457 152 472L173 589Q178 610 195 599L561 393Q572 386 571 371L558 307Q557 294 544 288Z"  horiz-adv-x="630" vert-adv-y="1000"  />

      
      <glyph glyph-name="uni3f" unicode="&#x3f;" d="M277 215L170 215Q152 215 155 234L161 272Q169 315 191.50 347Q214 379 241 397Q268 415 295 431Q322 447 343 469Q364 491 369 521Q376 555 358 576.50Q340 598 292 598Q221 598 151 543Q137 529 128 548L91 630Q85 644 96 653Q190 728 312 728Q408 728 467.50 672.50Q527 617 508 512Q500 465 477.50 431.50Q455 398 428 379Q401 360 374 343.50Q347 327 325.50 303Q304 279 297 245L294 225Q293 215 277 215M286 68Q280 34 254.50 12Q229-10 193-10Q153-10 131 18.50Q109 47 117 89Q123 124 148 145.50Q173 167 210 167Q250 167 271.50 139Q293 111 286 68Z"  horiz-adv-x="497" vert-adv-y="1000"  />

      
      <glyph glyph-name="uni40" unicode="&#x40;" d="M560-69Q461-121 343-121Q180-121 96.50-14Q13 93 43 251L67 386Q96 546 208.50 637Q321 728 512 728Q750 728 856 558Q862 545 860 535L816 278Q799 178 750.50 128.50Q702 79 628 79Q563 79 536 117Q481 77 397 77Q322 77 282.50 130Q243 183 257 261L273 347Q287 426 339.50 473Q392 520 476 520Q568 520 635 480Q646 473 644 458L605 236Q603 223 604 212.50Q605 202 614 195.50Q623 189 639 189Q688 192 699 251L747 515Q721 561 655 592.50Q589 624 504 624Q364 624 283 558.50Q202 493 181 377L158 248Q137 135 193 59.50Q249-16 355-16Q450-16 533 22Q550 31 555 11L568-49Q571-63 560-69M376 265Q363 189 422 189Q454 189 484 206L517 398Q502 409 471 409Q438 409 416.50 390Q395 371 389 336L376 265Z"  horiz-adv-x="851" vert-adv-y="1000"  />

      
      <glyph glyph-name="uni41" unicode="&#x41;" d="M569 0L444 0Q427 0 426 16L412 133L187 133L133 13Q129 0 113 0L-24 0Q-46 0-36 21L297 702Q303 715 317 715L463 715Q479 715 482 699L585 18Q588 0 569 0M369 541L365 541Q279 338 250 275L396 275Q392 311 386 369Q380 427 376 470Q372 513 369 541Z"  horiz-adv-x="630" vert-adv-y="1000"  />

      
      <glyph glyph-name="uni42" unicode="&#x42;" d="M296 0L44 0Q25 0 28 19L148 699Q151 715 166 715L412 715Q515 715 566 656.50Q617 598 602 508Q586 416 511 378Q600 332 580 215Q544 0 296 0M236 307L207 141L313 141Q356 141 385 163.50Q414 186 421 230Q432 307 345 307L236 307M285 578L260 436L352 436Q430 436 443 510Q456 578 377 578L285 578Z"  horiz-adv-x="623" vert-adv-y="1000"  />

      
      <glyph glyph-name="uni43" unicode="&#x43;" d="M522 51Q415-13 284-13Q158-13 93.50 63.50Q29 140 52 273L87 476Q108 598 192 663Q276 728 401 728Q517 728 598 660Q612 651 600 636L527 550Q518 538 503 547Q451 583 387 583Q328 583 292 550Q256 517 247 460L212 258Q202 197 228 165Q254 133 313 133Q388 133 454 177Q469 186 478 170L525 72Q532 57 522 51Z"  horiz-adv-x="570" vert-adv-y="1000"  />

      
      <glyph glyph-name="uni44" unicode="&#x44;" d="M282 0L43 0Q25 0 28 19L148 699Q150 715 166 715L401 715Q519 715 585 642.50Q651 570 627 429L598 264Q574 122 494.50 61Q415 0 282 0M283 570L208 145L307 145Q414 145 437 271L468 449Q479 513 458 541.50Q437 570 383 570L283 570Z"  horiz-adv-x="647" vert-adv-y="1000"  />

      
      <glyph glyph-name="uni45" unicode="&#x45;" d="M594 696L575 588Q572 572 557 572L285 572L260 433L498 433Q516 433 513 414L494 309Q491 293 476 293L235 293L209 144L492 144Q510 144 508 125L490 16Q487 0 471 0L44 0Q26 0 28 19L149 699Q152 715 167 715L578 715Q597 715 594 696Z"  horiz-adv-x="572" vert-adv-y="1000"  />

      
      <glyph glyph-name="uni46" unicode="&#x46;" d="M597 696L578 587Q577 571 560 571L286 571L257 409L490 409Q508 409 506 390L486 281Q483 265 468 265L231 265L186 16Q184 0 168 0L44 0Q25 0 28 19L149 699Q151 715 167 715L581 715Q600 715 597 696Z"  horiz-adv-x="550" vert-adv-y="1000"  />

      
      <glyph glyph-name="uni47" unicode="&#x47;" d="M544 83Q494 39 422.50 13.50Q351-12 276-12Q158-12 94.50 66.50Q31 145 51 263L87 477Q108 597 192.50 662.50Q277 728 399 728Q531 728 623 656Q635 645 625 631L548 544Q539 532 524 540Q464 583 383 583Q328 583 292 551Q256 519 247 462L211 252Q203 200 226.50 167Q250 134 300 134Q366 136 412 161L435 286L329 286Q311 286 314 305L331 400Q333 416 349 416L591 416Q609 416 606 397L554 102Q551 89 544 83Z"  horiz-adv-x="629" vert-adv-y="1000"  />

      
      <glyph glyph-name="uni48" unicode="&#x48;" d="M466 434L513 699Q515 715 531 715L655 715Q673 715 671 696L550 16Q548 0 532 0L408 0Q390 0 393 19L441 289L234 289L186 16Q183 0 167 0L44 0Q25 0 28 19L148 699Q151 715 166 715L290 715Q308 715 306 696L260 434L466 434Z"  horiz-adv-x="665" vert-adv-y="1000"  />

      
      <glyph glyph-name="uni49" unicode="&#x49;" d="M306 696L186 16Q183 0 168 0L44 0Q26 0 28 19L148 699Q151 715 167 715L290 715Q309 715 306 696Z"  horiz-adv-x="300" vert-adv-y="1000"  />

      
      <glyph glyph-name="uni4a" unicode="&#x4a;" d="M447 226Q427 112 353.50 50Q280-12 168-12Q57-12-23 57Q-35 69-25 82L43 170Q53 182 68 173Q116 134 182 134Q269 134 287 232L369 699Q372 715 388 715L512 715Q530 715 528 696L447 226Z"  horiz-adv-x="519" vert-adv-y="1000"  />

      
      <glyph glyph-name="uni4b" unicode="&#x4b;" d="M509 715L670 715Q681 715 684 708.50Q687 702 680 693L397 393L588 21Q592 12 588.50 6Q585 0 575 0L434 0Q418 0 414 13L283 283L223 225L186 16Q183 0 167 0L44 0Q25 0 28 19L148 699Q151 715 167 715L290 715Q309 715 306 696L262 448L488 705Q496 715 509 715Z"  horiz-adv-x="627" vert-adv-y="1000"  />

      
      <glyph glyph-name="uni4c" unicode="&#x4c;" d="M306 696L209 145L463 145Q482 145 479 126L460 16Q457 0 441 0L43 0Q25 0 28 19L148 699Q150 715 166 715L290 715Q308 715 306 696Z"  horiz-adv-x="512" vert-adv-y="1000"  />

      
      <glyph glyph-name="uni4d" unicode="&#x4d;" d="M166 0L44 0Q25 0 28 19L147 699Q150 715 165 715L306 715Q322 715 326 700L376 529Q412 390 426 324L429 324Q504 457 551 531L663 704Q670 715 684 715L830 715Q849 715 846 696L727 16Q724 0 708 0L586 0Q568 0 570 19L592 146Q609 246 655 463L650 464Q611 390 532 261L468 161Q461 149 448 149L357 149Q342 149 337 164L307 266Q265 428 259 459L254 459Q241 354 208 149L185 16Q184 0 166 0Z"  horiz-adv-x="841" vert-adv-y="1000"  />

      
      <glyph glyph-name="uni4e" unicode="&#x4e;" d="M166 0L43 0Q25 0 28 19L148 699Q150 715 166 715L298 715Q315 715 318 701L397 464Q431 355 459 249L464 250Q479 379 504 527L534 699Q537 715 552 715L674 715Q693 715 690 696L570 16Q567 0 551 0L420 0Q406 0 400 14L321 226Q278 338 252 464L248 462Q230 277 210 166L184 16Q181 0 166 0Z"  horiz-adv-x="685" vert-adv-y="1000"  />

      
      <glyph glyph-name="uni4f" unicode="&#x4f;" d="M607 255Q585 127 500 57Q415-13 280-13Q153-13 91.50 70.50Q30 154 53 289L84 466Q106 589 191 658.50Q276 728 407 728Q535 728 598 647.50Q661 567 638 432L607 255M212 271Q201 208 225 170.50Q249 133 303 133Q361 133 398 167.50Q435 202 446 264L478 447Q489 509 465.50 545.50Q442 582 386 582Q269 582 245 452L212 271Z"  horiz-adv-x="656" vert-adv-y="1000"  />

      
      <glyph glyph-name="uni50" unicode="&#x50;" d="M166 715L393 715Q518 715 580 641Q642 567 620 447Q600 338 525.50 275.50Q451 213 332 213L221 213L186 16Q183 0 167 0L43 0Q25 0 28 19L148 699Q150 715 166 715M335 356Q443 356 460 460Q469 514 445.50 542.50Q422 571 371 571L284 571L246 356L335 356Z"  horiz-adv-x="612" vert-adv-y="1000"  />

      
      <glyph glyph-name="uni51" unicode="&#x51;" d="M596 1L503-73Q490-85 480-70L420 12Q358-11 281-12Q152-13 91 70Q30 153 53 289L84 466Q106 589 191 658.50Q276 728 408 728Q537 728 600 647.50Q663 567 640 432L610 255Q594 162 542 98L599 26Q609 13 596 1M213 271Q202 209 226 172Q250 135 304 135Q362 135 399 169Q436 203 447 264L479 447Q490 509 466.50 545.50Q443 582 387 582Q270 582 246 452L213 271Z"  horiz-adv-x="664" vert-adv-y="1000"  />

      
      <glyph glyph-name="uni52" unicode="&#x52;" d="M168 0L44 0Q25 0 28 19L147 699Q150 715 166 715L396 715Q515 715 573 642.50Q631 570 613 458Q588 302 439 257L551 20Q561 0 539 0L403 0Q387 0 383 13L291 238L225 238L187 16Q184 0 168 0M283 571L250 380L338 380Q437 380 452 470Q467 571 372 571L283 571Z"  horiz-adv-x="618" vert-adv-y="1000"  />

      
      <glyph glyph-name="uni53" unicode="&#x53;" d="M557 186Q516-13 263-13Q125-13 15 84Q2 95 13 109L85 198Q95 211 110 200Q194 134 280 134Q326 134 358.50 152Q391 170 397 204Q403 238 374 257.50Q345 277 280 295Q70 356 100 534Q117 634 189.50 681Q262 728 370 728Q501 728 604 652Q618 642 607 628L537 538Q526 526 513 535Q437 584 352 584Q312 584 287 566.50Q262 549 256 518Q250 485 274 468Q298 451 354 434Q400 420 430.50 406Q461 392 500 364Q539 336 554 291Q569 246 557 186Z"  horiz-adv-x="600" vert-adv-y="1000"  />

      
      <glyph glyph-name="uni54" unicode="&#x54;" d="M108 715L610 715Q629 715 626 696L606 586Q604 570 588 570L415 570L317 16Q314 0 299 0L174 0Q156 0 159 19L257 570L86 570Q68 570 70 589L90 699Q93 715 108 715Z"  horiz-adv-x="562" vert-adv-y="1000"  />

      
      <glyph glyph-name="uni55" unicode="&#x55;" d="M597 247Q576 123 497.50 55.50Q419-12 287-12Q164-12 104.50 67Q45 146 68 284L142 699Q145 715 160 715L286 715Q305 715 302 696L225 266Q214 202 237 168.50Q260 135 310 135Q361 135 394.50 166.50Q428 198 439 259L515 699Q518 715 533 715L659 715Q677 715 675 696L597 247Z"  horiz-adv-x="665" vert-adv-y="1000"  />

      
      <glyph glyph-name="uni56" unicode="&#x56;" d="M349 0L199 0Q183 0 180 16L80 697Q77 715 96 715L223 715Q241 715 242 699L278 394Q293 270 299 180L305 180Q366 332 389 382L537 702Q544 715 558 715L696 715Q718 715 708 694L369 13Q363 0 349 0Z"  horiz-adv-x="636" vert-adv-y="1000"  />

      
      <glyph glyph-name="uni57" unicode="&#x57;" d="M305 0L160 0Q143 0 142 16L82 697Q80 715 99 715L227 715Q245 715 245 698L255 472Q259 373 257 179L262 179Q308 330 367 479L453 691Q459 705 473 705L614 705Q631 705 632 689L649 468Q657 336 657 179L663 179Q717 359 766 488L849 701Q855 715 869 715L1003 715Q1025 715 1017 695L719 13Q712 0 698 0L553 0Q537 0 536 16L523 213Q519 279 516 500L510 500Q483 390 428 257L325 14Q319 0 305 0Z"  horiz-adv-x="948" vert-adv-y="1000"  />

      
      <glyph glyph-name="uni58" unicode="&#x58;" d="M503 715L647 715Q658 715 661 709Q664 703 658 694L416 356L551 20Q558 0 537 0L403 0Q389 0 384 14L303 241L153 12Q146 0 132 0L-18 0Q-28 0-31.50 6.50Q-35 13-29 21L220 359L101 695Q98 704 102 709.50Q106 715 115 715L245 715Q260 715 265 701L334 474L482 703Q490 715 503 715Z"  horiz-adv-x="605" vert-adv-y="1000"  />

      
      <glyph glyph-name="uni59" unicode="&#x59;" d="M308 0L183 0Q164 0 167 19L211 257L78 696Q75 704 79 709.50Q83 715 92 715L222 715Q237 715 240 700L313 405L315 405L485 703Q492 715 505 715L643 715Q653 715 656 709Q659 703 654 694L371 254L326 16Q323 0 308 0Z"  horiz-adv-x="582" vert-adv-y="1000"  />

      
      <glyph glyph-name="uni5a" unicode="&#x5a;" d="M497 0L6 0Q-13 0-10 19L6 104Q8 113 16 124L393 572L125 572Q107 572 110 591L129 699Q132 715 147 715L611 715Q630 715 627 696L611 614Q608 602 602 593L231 143L520 143Q538 143 535 124L516 16Q513 0 497 0Z"  horiz-adv-x="593" vert-adv-y="1000"  />

      
      <glyph glyph-name="uni5b" unicode="&#x5b;" d="M275 703L153 9L215 9Q233 9 231-10L215-101Q212-116 196-116L17-116Q-2-116 1-97L161 812Q164 828 180 828L359 828Q377 828 375 809L359 719Q356 703 340 703L275 703Z"  horiz-adv-x="307" vert-adv-y="1000"  />

      
      <glyph glyph-name="uni5c" unicode="&#x5c;" d="M372 0L275 0Q260 0 255 15L98 696Q93 715 114 715L210 715Q224 715 229 700L388 19Q391 0 372 0Z"  horiz-adv-x="452" vert-adv-y="1000"  />

      
      <glyph glyph-name="uni5d" unicode="&#x5d;" d="M65 9L187 703L125 703Q107 703 109 722L125 813Q128 828 144 828L323 828Q342 828 339 809L179-100Q176-116 160-116L-19-116Q-37-116-35-97L-19-7Q-16 9 0 9L65 9Z"  horiz-adv-x="306" vert-adv-y="1000"  />

      
      <glyph glyph-name="uni5e" unicode="&#x5e;" d="M237 549L120 549Q109 549 106 555.50Q103 562 110 570L337 813Q348 822 359 822L467 822Q481 822 488 810L630 570Q640 549 618 549L512 549Q500 549 492 561L401 721L259 558Q251 549 237 549Z"  horiz-adv-x="630" vert-adv-y="1000"  />

      
      <glyph glyph-name="uni5f" unicode="&#x5f;" d="M468-32L451-125Q449-141 433-141L-13-141Q-31-141-28-122L-12-29Q-11-13 6-13L452-13Q471-13 468-32Z"  horiz-adv-x="555" vert-adv-y="1000"  />

      
      <glyph glyph-name="uni60" unicode="&#x60;" d="M216 745L279 615Q283 606 279.50 600.50Q276 595 267 595L198 595Q184 595 177 606L92 737Q86 745 89.50 751.50Q93 758 103 758L196 758Q210 758 216 745Z"  horiz-adv-x="245" vert-adv-y="1000"  />

      
      <glyph glyph-name="uni61" unicode="&#x61;" d="M406 22Q306-13 198-13Q95-13 43.50 40Q-8 93 7 176Q32 316 234 316Q279 316 319 308L321 324Q328 363 313 381.50Q298 400 253 400Q183 400 134 377Q117 369 111 385L80 467Q75 482 83 487Q161 534 287 534Q390 534 438 470Q486 406 466 294L421 41Q418 26 406 22M156 168Q151 140 167 126Q183 112 217 112Q250 112 286 120L300 207Q267 214 236 214Q164 214 156 168Z"  horiz-adv-x="505" vert-adv-y="1000"  />

      
      <glyph glyph-name="uni62" unicode="&#x62;" d="M248 512Q290 534 344 534Q429 534 477 469.50Q525 405 508 307L490 203Q472 98 403 42.50Q334-13 224-13Q116-13 26 36Q13 43 16 58L131 699Q133 715 149 715L265 715Q283 715 281 696L248 512M339 214L358 324Q366 364 349.50 385.50Q333 407 297 407Q258 407 225 387L180 130Q206 118 240 118Q322 118 339 214Z"  horiz-adv-x="538" vert-adv-y="1000"  />

      
      <glyph glyph-name="uni63" unicode="&#x63;" d="M395 30Q318-13 223-13Q120-13 66 50.50Q12 114 31 219L53 343Q69 435 136.50 484.50Q204 534 302 534Q388 534 454 486Q467 476 457 462L398 386Q388 375 374 383Q338 404 297 404Q217 404 203 327L182 209Q173 164 190.50 140.50Q208 117 246 117Q291 117 340 146Q356 156 364 140L403 54Q411 39 395 30Z"  horiz-adv-x="451" vert-adv-y="1000"  />

      
      <glyph glyph-name="uni64" unicode="&#x64;" d="M431 24Q339-13 231-13Q123-13 67.50 52.50Q12 118 29 219L50 334Q66 424 129 479Q192 534 281 534Q338 534 378 513L411 699Q414 715 429 715L545 715Q564 715 561 696L446 42Q444 28 431 24M181 208Q172 162 188 141Q204 120 245 120Q286 120 311 131L356 389Q331 406 290 406Q216 406 200 315L181 208Z"  horiz-adv-x="539" vert-adv-y="1000"  />

      
      <glyph glyph-name="uni65" unicode="&#x65;" d="M54 342Q71 436 139.50 485Q208 534 303 534Q405 534 459.50 479Q514 424 495 319L478 222Q475 207 460 207L182 207L179 193Q164 114 248 114Q311 114 378 154Q394 165 401 149L442 72Q449 55 436 48Q347-13 227-13Q126-13 68.50 44.50Q11 102 28 197L54 342M346 307L351 332Q357 364 341.50 385.50Q326 407 290 407Q257 407 234.50 388Q212 369 205 334L200 307L346 307Z"  horiz-adv-x="519" vert-adv-y="1000"  />

      
      <glyph glyph-name="uni66" unicode="&#x66;" d="M369 593Q351 596 327 596Q265 596 252 526L249 506L337 506Q355 506 353 487L337 395Q334 379 318 379L226 379L161 16Q159 0 143 0L27 0Q8 0 11 19L104 540Q137 728 325 728Q365 728 388 724Q405 721 402 703L385 608Q384 591 369 593Z"  horiz-adv-x="328" vert-adv-y="1000"  />

      
      <glyph glyph-name="uni67" unicode="&#x67;" d="M449 49Q425-87 364.50-144.50Q304-202 175-202Q64-202-6-142Q-19-132-8-118L53-40Q64-26 77-37Q125-68 188-68Q278-68 297 29Q250 14 208 14Q111 14 63 75.50Q15 137 33 236L50 331Q68 433 138 483.50Q208 534 310 534Q418 534 511 492Q525 484 522 470L449 49M184 223Q170 143 245 143Q292 143 318 162L357 390Q338 402 297 402Q215 402 202 326L184 223Z"  horiz-adv-x="539" vert-adv-y="1000"  />

      
      <glyph glyph-name="uni68" unicode="&#x68;" d="M248 513Q292 534 346 534Q435 534 478.50 470.50Q522 407 503 297L453 16Q451 0 435 0L320 0Q301 0 304 19L355 315Q372 403 293 403Q260 403 226 386L161 16Q158 0 142 0L27 0Q9 0 11 19L132 699Q134 715 150 715L265 715Q283 715 280 696L248 513Z"  horiz-adv-x="545" vert-adv-y="1000"  />

      
      <glyph glyph-name="uni69" unicode="&#x69;" d="M142 0L26 0Q8 0 11 19L97 505Q98 520 115 520L231 520Q250 520 247 502L161 16Q158 0 142 0M280 665Q274 634 249.50 613.50Q225 593 192 593Q154 593 132.50 620Q111 647 119 686Q125 719 149 739Q173 759 207 759Q245 759 266 732Q287 705 280 665Z"  horiz-adv-x="258" vert-adv-y="1000"  />

      
      <glyph glyph-name="uni6a" unicode="&#x6a;" d="M167-1Q147-112 92-157Q37-202-46-202Q-67-202-93-198Q-109-195-106-177L-88-75Q-85-58-71-60Q-63-61-46-61Q6-61 19 17L104 505Q107 520 123 520L239 520Q257 520 254 502L167-1M287 665Q281 634 256.50 613.50Q232 593 199 593Q161 593 139.50 620Q118 647 126 686Q133 719 156.50 739Q180 759 214 759Q252 759 273 732Q294 705 287 665Z"  horiz-adv-x="266" vert-adv-y="1000"  />

      
      <glyph glyph-name="uni6b" unicode="&#x6b;" d="M385 520L522 520Q533 520 536 513.50Q539 507 531 499L335 298L464 20Q472 0 451 0L324 0Q308 0 304 14L229 191L185 149L161 16Q159 0 143 0L27 0Q9 0 11 19L132 699Q135 715 150 715L266 715Q285 715 282 696L222 356L364 511Q370 520 385 520Z"  horiz-adv-x="506" vert-adv-y="1000"  />

      
      <glyph glyph-name="uni6c" unicode="&#x6c;" d="M234-8Q211-13 181-13Q100-13 61 45.50Q22 104 39 202L127 699Q130 715 145 715L261 715Q279 715 276 696L188 194Q174 119 227 119L247 119Q256 120 260 116Q264 112 263 103L247 8Q244-7 234-8Z"  horiz-adv-x="298" vert-adv-y="1000"  />

      
      <glyph glyph-name="uni6d" unicode="&#x6d;" d="M426 494Q501 534 574 534Q676 534 726 466Q776 398 758 290L708 16Q706 0 690 0L577 0Q559 0 561 19L612 311Q628 403 552 403Q517 403 485 385Q493 341 484 290L435 16Q433 0 417 0L304 0Q285 0 288 19L339 311Q355 403 284 403Q250 403 226 391L158 16Q155 0 140 0L25 0Q7 0 10 19L93 476Q96 489 108 494Q202 534 302 534Q376 534 426 494Z"  horiz-adv-x="800" vert-adv-y="1000"  />

      
      <glyph glyph-name="uni6e" unicode="&#x6e;" d="M142 0L26 0Q7 0 10 19L92 476Q95 489 107 494Q212 534 310 534Q421 534 472 469Q523 404 504 296L454 16Q451 0 435 0L320 0Q302 0 304 19L354 311Q372 403 291 403Q253 403 227 391L161 16Q158 0 142 0Z"  horiz-adv-x="546" vert-adv-y="1000"  />

      
      <glyph glyph-name="uni6f" unicode="&#x6f;" d="M482 185Q465 90 398 38.50Q331-13 221-13Q121-13 66.50 52.50Q12 118 29 214L50 338Q67 429 136 481.50Q205 534 309 534Q410 534 465.50 469Q521 404 505 311L482 185M179 199Q172 162 187.50 140Q203 118 238 118Q317 118 330 193L353 321Q359 356 343 379.50Q327 403 292 403Q256 403 232 382.50Q208 362 202 328L179 199Z"  horiz-adv-x="535" vert-adv-y="1000"  />

      
      <glyph glyph-name="uni70" unicode="&#x70;" d="M105 492Q196 533 307 533Q414 533 469.50 467.50Q525 402 508 301L488 186Q473 97 409.50 42Q346-13 257-13Q199-13 160 9L127-174Q125-190 109-190L-7-190Q-25-190-22-171L91 474Q94 487 105 492M339 206L357 312Q366 360 350 381Q334 402 293 402Q255 402 227 387L182 133Q207 114 246 114Q323 114 339 206Z"  horiz-adv-x="539" vert-adv-y="1000"  />

      
      <glyph glyph-name="uni71" unicode="&#x71;" d="M388-190L272-190Q254-190 256-171L289 8Q247-13 192-13Q109-13 60 52Q11 117 29 214L48 319Q67 422 135 478Q203 534 309 534Q420 534 511 486Q524 479 521 463L407-174Q404-190 388-190M179 197Q172 157 189 135.50Q206 114 239 114Q278 114 311 132L358 392Q331 403 295 403Q217 403 199 307L179 197Z"  horiz-adv-x="538" vert-adv-y="1000"  />

      
      <glyph glyph-name="uni72" unicode="&#x72;" d="M143 0L27 0Q8 0 11 19L90 473Q93 486 105 492Q195 534 290 534Q330 534 373 525Q390 522 387 505L369 407Q367 390 349 392Q321 397 291 397Q255 397 226 385L161 16Q158 0 143 0Z"  horiz-adv-x="359" vert-adv-y="1000"  />

      
      <glyph glyph-name="uni73" unicode="&#x73;" d="M437 142Q422 65 361 26Q300-13 203-13Q82-13 0 54Q-13 64-3 78L54 156Q64 169 78 160Q136 117 208 117Q277 117 285 155Q288 170 278 179.50Q268 189 255.50 193Q243 197 217 203Q137 219 92 266.50Q47 314 63 390Q93 534 289 534Q385 534 465 488Q480 479 469 464L410 385Q402 372 386 380Q339 407 275 407Q216 407 211 374Q207 353 224.50 343.50Q242 334 285 324Q357 308 404 264.50Q451 221 437 142Z"  horiz-adv-x="482" vert-adv-y="1000"  />

      
      <glyph glyph-name="uni74" unicode="&#x74;" d="M303 381L221 381L187 188Q175 119 236 119L263 119Q272 120 276.50 115.50Q281 111 279 102L263 9Q260-7 246-8Q221-13 195-13Q108-13 64 41Q20 95 39 200L114 629Q117 645 133 645L231 645Q250 645 248 627L242 508L322 508Q341 508 338 489L322 397Q319 381 303 381Z"  horiz-adv-x="328" vert-adv-y="1000"  />

      
      <glyph glyph-name="uni75" unicode="&#x75;" d="M400 520L517 520Q535 520 532 502L451 45Q448 32 436 27Q339-12 235-12Q125-12 74.50 52.50Q24 117 43 224L93 505Q96 520 111 520L227 520Q245 520 242 502L192 209Q176 118 253 118Q289 118 315 129L382 505Q384 520 400 520Z"  horiz-adv-x="541" vert-adv-y="1000"  />

      
      <glyph glyph-name="uni76" unicode="&#x76;" d="M277 0L145 0Q127 0 126 16L49 502Q47 520 66 520L182 520Q199 520 200 504L224 289Q231 226 236 157L238 157Q244 172 263 218.50Q282 265 292 290L387 507Q394 520 408 520L532 520Q554 520 544 500L297 13Q291 0 277 0Z"  horiz-adv-x="510" vert-adv-y="1000"  />

      
      <glyph glyph-name="uni77" unicode="&#x77;" d="M241 0L114 0Q97 0 96 16L52 502Q50 520 69 520L184 520Q202 520 202 503L206 339Q208 251 208 171L212 171Q242 266 270 338L334 500Q340 513 354 513L473 513Q490 513 490 497L498 337Q502 230 501 171L505 171Q514 200 565 341L626 507Q632 520 646 520L761 520Q784 520 774 501L560 13Q554 0 539 0L414 0Q398 0 396 17L389 183Q389 197 388 253.50Q387 310 386 330L383 330Q361 258 331 183L260 14Q255 0 241 0Z"  horiz-adv-x="742" vert-adv-y="1000"  />

      
      <glyph glyph-name="uni78" unicode="&#x78;" d="M374 520L500 520Q511 520 514 514Q517 508 511 500L341 259L434 20Q442 0 420 0L297 0Q282 0 278 15L233 160L133 12Q126 0 112 0L-18 0Q-29 0-32.50 6.50Q-36 13-30 21L153 270L68 501Q62 520 81 520L202 520Q217 520 221 506L261 357L354 509Q360 520 374 520Z"  horiz-adv-x="491" vert-adv-y="1000"  />

      
      <glyph glyph-name="uni79" unicode="&#x79;" d="M316 159L377 505Q380 520 396 520L511 520Q529 520 527 502L447 49Q423-86 360.50-144Q298-202 176-202Q63-202-4-144Q-17-134-6-120L56-41Q65-28 81-37Q126-69 188-69Q236-69 261.50-46Q287-23 295 29Q250 14 210 14Q118 14 72 76.50Q26 139 43 240L91 505Q92 520 109 520L224 520Q243 520 240 502L190 226Q174 142 249 142Q288 142 316 159Z"  horiz-adv-x="539" vert-adv-y="1000"  />

      
      <glyph glyph-name="uni7a" unicode="&#x7a;" d="M388 0L3 0Q-16 0-13 19L-1 84Q2 95 9 104L262 392L85 392Q67 392 70 410L88 505Q90 520 106 520L471 520Q489 520 486 502L476 441Q473 430 466 421L213 130L409 130Q427 130 424 111L406 16Q404 0 388 0Z"  horiz-adv-x="480" vert-adv-y="1000"  />

      
      <glyph glyph-name="uni7b" unicode="&#x7b;" d="M221-116L173-116Q107-116 76.50-74.50Q46-33 59 43L87 204Q104 288 53 299Q35 302 38 318L50 397Q51 410 68 413Q99 420 118 450Q137 480 143 519L171 679Q185 760 222 794Q259 828 331 828L384 828Q402 828 400 809L384 716Q381 701 365 701L348 701Q329 701 315 687.50Q301 674 297 650L268 489Q260 440 232 403Q204 366 166 352Q194 341 211 300.50Q228 260 219 212L191 51Q187 29 193 20Q199 11 217 11L241 11Q259 11 256-8L239-101Q238-116 221-116Z"  horiz-adv-x="332" vert-adv-y="1000"  />

      
      <glyph glyph-name="uni7c" unicode="&#x7c;" d="M118-139L13-139Q-6-139-3-120L167 845Q170 861 186 861L291 861Q309 861 306 842L136-123Q133-139 118-139Z"  horiz-adv-x="268" vert-adv-y="1000"  />

      
      <glyph glyph-name="uni7d" unicode="&#x7d;" d="M144 829L192 829Q258 829 288.50 787.50Q319 746 306 670L278 509Q261 425 312 414Q330 411 327 395L315 316Q314 303 297 300Q266 293 247 263Q228 233 222 194L194 34Q180-47 143-81Q106-115 34-115L-19-115Q-37-115-35-96L-19-3Q-16 12 0 12L17 12Q36 12 50 25.50Q64 39 68 63L97 224Q105 273 133 310Q161 347 199 361Q171 372 154 412.50Q137 453 146 501L174 662Q178 684 172 693Q166 702 148 702L124 702Q106 702 109 721L126 814Q128 829 144 829Z"  horiz-adv-x="331" vert-adv-y="1000"  />

      
      <glyph glyph-name="uni7e" unicode="&#x7e;" d="M556 296Q499 233 422 233Q378 233 325.50 256Q273 279 245 279Q200 279 169 250Q155 237 144 251L88 321Q77 333 89 345Q143 412 227 412Q269 412 324 389Q379 366 405 366Q449 366 479 394Q493 407 504 393L559 323Q569 310 556 296Z"  horiz-adv-x="630" vert-adv-y="1000"  />

      
      <glyph glyph-name="unia1" unicode="&#xa1;" d="M109-193L-3-193Q-21-193-19-174L11-5L72 283Q74 299 91 299L182 299Q201 299 198 281L158-5L127-177Q124-193 109-193M248 434Q241 399 216 378Q191 357 155 357Q115 357 93 385Q71 413 79 456Q85 490 110.50 512Q136 534 172 534Q212 534 234 505Q256 476 248 434Z"  horiz-adv-x="259" vert-adv-y="1000"  />

      
      <glyph glyph-name="unia2" unicode="&#xa2;" d="M240-107L166-107Q148-107 151-88L165-5Q93 14 58.50 73.50Q24 133 39 219L61 343Q75 421 127.50 469.50Q180 518 258 530L272 611Q275 626 290 626L364 626Q382 626 380 608L366 528Q419 518 462 486Q476 476 465 462L407 386Q397 374 382 383Q346 404 306 404Q225 404 211 327L190 209Q182 164 199.50 140.50Q217 117 254 117Q300 117 349 146Q366 156 372 140L412 54Q418 38 405 31Q342-5 272-11L258-91Q256-107 240-107Z"  horiz-adv-x="478" vert-adv-y="1000"  />

      
      <glyph glyph-name="unia3" unicode="&#xa3;" d="M443 0L15 0Q-3 0-1 19L15 110Q17 122 33 127Q94 141 109 234L120 298L68 298Q49 298 52 317L69 410Q72 426 87 426L144 426L162 519Q179 618 239 673Q299 728 394 728Q499 728 563 668Q575 656 564 644L500 571Q489 560 475 569Q435 597 385 597Q350 597 328 573.50Q306 550 299 508L284 426L409 426Q428 426 425 407L408 314Q405 298 390 298L263 298L251 231Q236 156 186 128L463 128Q481 128 478 109L461 16Q459 0 443 0Z"  horiz-adv-x="538" vert-adv-y="1000"  />

      
      <glyph glyph-name="unia4" unicode="&#xa4;" d="M405 136Q345 105 279 105Q213 105 166 134L100 76Q88 64 75 78L32 134Q21 148 34 159L98 215Q75 272 88 349Q100 418 140 472L100 523Q88 536 102 547L169 606Q183 620 194 605L233 555Q292 586 359 586Q431 586 480 551L544 607Q558 619 569 605L613 550Q622 536 611 525L542 465Q562 412 549 343Q537 271 497 218L544 159Q555 146 541 135L475 76Q460 65 450 78L405 136M208 346Q198 293 223.50 260.50Q249 228 298 228Q347 228 384.50 261.50Q422 295 430 346Q438 399 413 431.50Q388 464 339 464Q291 464 254 430.50Q217 397 208 346Z"  horiz-adv-x="614" vert-adv-y="1000"  />

      
      <glyph glyph-name="unia5" unicode="&#xa5;" d="M327 0L205 0Q187 0 190 19L203 88L95 88Q77 88 80 107L92 177Q95 192 110 192L221 192L231 242L122 242Q104 242 107 261L118 331Q121 346 137 346L202 346L101 696Q96 715 115 715L242 715Q258 715 261 700L330 386L333 386L500 702Q506 715 520 715L659 715Q669 715 672.50 709Q676 703 671 694L452 346L508 346Q526 346 523 328L511 258Q508 242 493 242L387 242L378 192L481 192Q499 192 496 174L484 104Q482 88 466 88L360 88L345 16Q344 0 327 0Z"  horiz-adv-x="622" vert-adv-y="1000"  />

      
      <glyph glyph-name="unia6" unicode="&#xa6;" d="M217 414L111 414Q93 414 96 433L169 845Q172 861 187 861L292 861Q311 861 308 842L235 430Q232 414 217 414M120-139L14-139Q-4-139-2-120L72 293Q74 309 90 309L195 309Q213 309 211 290L138-123Q135-139 120-139Z"  horiz-adv-x="271" vert-adv-y="1000"  />

      
      <glyph glyph-name="unia7" unicode="&#xa7;" d="M412 6Q396-79 334.50-127Q273-175 185-175Q119-175 69.50-146.50Q20-118-6-72Q-14-58-1-49L77 12Q90 22 101 7Q134-41 193-41Q223-41 245.50-24.50Q268-8 273 20Q276 40 258.50 56.50Q241 73 212.50 84Q184 95 151 112Q118 129 90.50 148.50Q63 168 48 203Q33 238 41 284Q56 376 142 421Q97 477 110 556Q124 637 187 682.50Q250 728 331 728Q419 728 481 669Q492 656 480 644L411 581Q401 571 387 581Q356 601 315 601Q285 601 265.50 586Q246 571 242 545Q239 521 256.50 501.50Q274 482 302 470.50Q330 459 362 442Q394 425 420 406.50Q446 388 459.50 353.50Q473 319 464 273Q449 193 374 143Q428 95 412 6M174 293Q168 260 193 239.50Q218 219 279 204Q320 228 329 272Q333 298 310 316Q287 334 229 353Q183 330 174 293Z"  horiz-adv-x="498" vert-adv-y="1000"  />

      
      <glyph glyph-name="unia8" unicode="&#xa8;" d="M213 671Q207 638 185.50 619Q164 600 133 600Q102 600 85 621Q68 642 74 676Q80 709 102.50 727.50Q125 746 156 746Q187 746 203.50 725Q220 704 213 671M421 671Q415 638 394 619Q373 600 342 600Q311 600 293.50 620.50Q276 641 282 676Q288 709 310.50 727.50Q333 746 364 746Q395 746 411.50 725Q428 704 421 671Z"  horiz-adv-x="349" vert-adv-y="1000"  />

      
      <glyph glyph-name="unia9" unicode="&#xa9;" d="M754 346Q725 179 611 83Q497-13 348-13Q201-13 113.50 88.50Q26 190 56 354Q86 528 202.50 628Q319 728 470 728Q614 728 698.50 622.50Q783 517 754 346M129 352Q104 213 171 136.50Q238 60 361 60Q477 60 568 137Q659 214 682 350Q707 496 642.50 575Q578 654 458 654Q338 654 245 574.50Q152 495 129 352M515 193Q458 148 377 148Q309 148 267 190.50Q225 233 239 308L255 395Q269 472 321 512Q373 552 445 552Q514 552 560 509Q572 499 560 485L511 428Q501 417 487 426Q463 447 430 447Q376 447 366 390L352 311Q341 254 397 254Q434 254 468 277Q483 288 491 271L519 216Q527 202 515 193Z"  horiz-adv-x="779" vert-adv-y="1000"  />

      
      <glyph glyph-name="uniab" unicode="&#xab;" d="M254 71L147 71Q133 71 126 84L35 278Q28 291 37 302L199 501Q207 511 220 511L330 511Q341 511 344 504.50Q347 498 340 489L174 291L268 92Q276 71 254 71M479 71L372 71Q358 71 351 84L260 278Q253 291 262 302L424 501Q432 511 445 511L555 511Q566 511 569 504.50Q572 498 565 489L399 291L493 92Q501 71 479 71Z"  horiz-adv-x="558" vert-adv-y="1000"  />

      
      <glyph glyph-name="uniac" unicode="&#xac;" d="M499 128L403 128Q385 128 388 147L413 285L97 285Q79 285 82 304L99 401Q100 416 117 416L547 416Q565 416 562 397L517 144Q515 128 499 128Z"  horiz-adv-x="630" vert-adv-y="1000"  />

      
      <glyph glyph-name="uniae" unicode="&#xae;" d="M450 669Q450 669 475 639.50Q500 610 483 515Q466 420 400.50 366Q335 312 244 312Q165 312 114.50 371.50Q64 431 81 525Q99 619 165 673.50Q231 728 319 728Q400 728 450 669M128 522Q114 444 150.50 400Q187 356 254 356Q321 356 372 400Q423 444 437 521Q451 600 414.50 642.50Q378 685 311 685Q245 685 193 641.50Q141 598 128 522M231 422L203 422Q196 422 197 428L230 619Q231 626 238 626L309 626Q342 626 360 608.50Q378 591 372 558Q363 505 313 496L351 428Q355 422 347 422L313 422Q306 422 304 427L271 493L250 493L239 428Q238 422 231 422M266 586L257 532L290 532Q325 532 329 560Q333 586 302 586L266 586Z"  horiz-adv-x="475" vert-adv-y="1000"  />

      
      <glyph glyph-name="uniaf" unicode="&#xaf;" d="M67 631L80 700Q82 716 98 716L361 716Q379 716 376 697L363 628Q360 612 345 612L83 612Q64 612 67 631Z"  horiz-adv-x="303" vert-adv-y="1000"  />

      
      <glyph glyph-name="unib0" unicode="&#xb0;" d="M397 563Q384 490 333.50 447.50Q283 405 212 405Q144 405 107 450Q70 495 83 569Q96 643 147 683Q198 723 269 723Q337 723 373.50 680Q410 637 397 563M176 566Q170 532 185.50 515.50Q201 499 230 499Q258 499 278.50 516Q299 533 305 566Q310 598 295.50 613.50Q281 629 253 629Q224 629 203 613Q182 597 176 566Z"  horiz-adv-x="375" vert-adv-y="1000"  />

      
      <glyph glyph-name="unib1" unicode="&#xb1;" d="M355 207L257 207Q238 207 241 226L265 361L117 361Q99 361 102 380L121 482Q124 497 139 497L288 497L313 637Q316 653 332 653L430 653Q448 653 445 634L421 497L568 497Q586 497 583 478L565 376Q562 361 547 361L397 361L373 223Q371 207 355 207M493 30L62 30Q44 30 47 49L63 140Q66 156 81 156L511 156Q529 156 527 137L511 46Q508 30 493 30Z"  horiz-adv-x="630" vert-adv-y="1000"  />

      
      <glyph glyph-name="unib2" unicode="&#xb2;" d="M308 410L65 410Q46 410 49 429L58 483Q61 495 70 503L194 601Q259 653 264 682Q270 712 236 712Q202 712 162 685Q146 672 137 690L114 733Q108 748 120 757Q184 803 254 803Q314 803 344.50 767.50Q375 732 366 681Q361 650 340 621.50Q319 593 274 552Q246 527 210 505L322 505Q340 505 337 486L326 426Q324 410 308 410Z"  horiz-adv-x="320" vert-adv-y="1000"  />

      
      <glyph glyph-name="unib3" unicode="&#xb3;" d="M355 534Q344 473 298.50 439Q253 405 184 405Q102 405 55 460Q45 471 56 484L98 529Q110 541 123 528Q152 501 192 501Q248 501 257 549Q261 569 249 580Q237 591 211 591Q203 591 187 589Q169 586 166 602L161 622Q158 634 169 644L193 668Q224 696 246 710L129 710Q111 710 114 729L124 782Q126 798 142 798L368 798Q387 798 384 779L378 743Q376 732 365 723L273 647Q283 647 294 645Q328 637 345.50 608.50Q363 580 355 534Z"  horiz-adv-x="328" vert-adv-y="1000"  />

      
      <glyph glyph-name="unib4" unicode="&#xb4;" d="M166 595L88 595Q77 595 74 601.50Q71 608 78 616L185 748Q194 758 207 758L311 758Q322 758 325 751Q328 744 320 736L187 604Q179 595 166 595Z"  horiz-adv-x="272" vert-adv-y="1000"  />

      
      <glyph glyph-name="unib6" unicode="&#xb6;" d="M321-139L216-139Q197-139 200-120L259 210Q151 210 96 284Q41 358 61 470Q80 576 162 645.50Q244 715 361 715L709 715Q727 715 725 696L581-123Q579-139 563-139L457-139Q439-139 442-120L563 572L461 572L339-123Q336-139 321-139Z"  horiz-adv-x="723" vert-adv-y="1000"  />

      
      <glyph glyph-name="unib7" unicode="&#xb7;" d="M218 306Q212 271 186.50 249.50Q161 228 123 228Q83 228 60.50 257Q38 286 46 328Q53 363 78 384.50Q103 406 140 406Q181 406 203 377.50Q225 349 218 306Z"  horiz-adv-x="251" vert-adv-y="1000"  />

      
      <glyph glyph-name="unib8" unicode="&#xb8;" d="M133-131Q119-210-4-210Q-39-210-63-202Q-78-199-76-182L-72-149Q-69-133-51-138Q-38-141-23-141Q29-141 33-111Q35-100 27-93.50Q19-87 0-85Q-15-83-21-72Q-23-70-15-58L13-7Q19 5 34 5L69 5Q79 5 82.50-1.50Q86-8 81-16L63-45Q100-49 120-72.50Q140-96 133-131Z"  horiz-adv-x="177" vert-adv-y="1000"  />

      
      <glyph glyph-name="unib9" unicode="&#xb9;" d="M208 410L144 410Q126 410 128 429L172 678L135 655Q120 646 112 661L87 711Q80 726 94 734L189 792Q200 798 211 798L274 798Q292 798 290 779L227 426Q224 410 208 410Z"  horiz-adv-x="240" vert-adv-y="1000"  />

      
      <glyph glyph-name="unibb" unicode="&#xbb;" d="M89 511L196 511Q210 511 217 498L308 304Q315 291 306 280L144 81Q136 71 123 71L13 71Q2 71-1 77.50Q-4 84 3 93L169 291L75 490Q67 511 89 511M314 511L421 511Q435 511 442 498L533 304Q540 291 531 280L369 81Q361 71 348 71L238 71Q227 71 224 77.50Q221 84 228 93L394 291L300 490Q292 511 314 511Z"  horiz-adv-x="557" vert-adv-y="1000"  />

      
      <glyph glyph-name="unibc" unicode="&#xbc;" d="M212 327L148 327Q130 327 133 346L177 595L139 572Q124 562 116 578L92 628Q84 642 98 651L194 709Q205 715 215 715L278 715Q297 715 294 696L231 343Q229 327 212 327M723 694L200 11Q192 0 179 0L110 0Q99 0 96 6Q93 12 99 21L623 704Q631 715 644 715L712 715Q723 715 726 709Q729 703 723 694M783 157L804 157Q820 157 817 138L807 81Q804 65 788 65L766 65L758 16Q755 0 739 0L673 0Q655 0 658 19L666 65L507 65Q488 65 491 84L500 136Q501 145 508 157L657 377Q664 388 679 388L747 388Q758 388 761 382Q764 376 758 367L617 157L684 157L699 216Q702 230 718 230L777 230Q795 230 793 211L783 157Z"  horiz-adv-x="866" vert-adv-y="1000"  />

      
      <glyph glyph-name="unibd" unicode="&#xbd;" d="M211 327L147 327Q129 327 132 346L176 595L138 572Q123 562 115 578L91 628Q83 642 97 651L193 709Q203 715 214 715L277 715Q296 715 293 696L230 343Q228 327 211 327M711 694L188 11Q180 0 167 0L98 0Q87 0 84 6Q81 12 87 21L611 704Q619 715 632 715L700 715Q711 715 714 709Q717 703 711 694M723 0L481 0Q462 0 465 19L474 73Q477 85 486 93L610 191Q675 243 680 272Q686 302 652 302Q618 302 578 275Q561 261 553 280L530 323Q524 339 536 347Q600 393 670 393Q730 393 760.50 357.50Q791 322 782 271Q777 240 756 211.50Q735 183 690 142Q657 114 626 95L737 95Q756 95 753 76L742 16Q739 0 723 0Z"  horiz-adv-x="823" vert-adv-y="1000"  />

      
      <glyph glyph-name="unibe" unicode="&#xbe;" d="M355 452Q344 391 298.50 356.50Q253 322 184 322Q103 322 55 378Q45 389 56 402L98 446Q109 458 123 446Q151 418 192 418Q248 418 257 466Q261 487 249 497.50Q237 508 211 508Q195 508 187 506Q169 503 166 519L161 539Q158 551 169 562L241 628L129 628Q111 628 114 647L124 700Q126 715 142 715L368 715Q387 715 384 696L378 661Q375 648 365 641L273 565Q283 565 294 562Q328 554 345.50 525.50Q363 497 355 452M800 694L277 11Q269 0 256 0L187 0Q176 0 173 6Q170 12 176 21L700 704Q708 715 721 715L789 715Q800 715 803 709Q806 703 800 694M853 157L874 157Q890 157 887 138L877 81Q874 65 858 65L836 65L828 16Q825 0 809 0L743 0Q725 0 728 19L736 65L577 65Q558 65 561 84L570 136Q571 145 578 157L727 377Q734 388 749 388L817 388Q828 388 831 382Q834 376 828 367L687 157L754 157L769 216Q772 230 788 230L847 230Q865 230 863 211L853 157Z"  horiz-adv-x="933" vert-adv-y="1000"  />

      
      <glyph glyph-name="unibf" unicode="&#xbf;" d="M217 309L324 309Q342 309 339 290L333 252Q325 209 302.50 177Q280 145 253 127Q226 109 199 93Q172 77 151 55Q130 33 125 3Q118-31 136-52.50Q154-74 202-74Q273-74 343-19Q357-5 366-24L403-106Q409-120 398-129Q304-204 182-204Q86-204 26.50-148.50Q-33-93-14 12Q-6 59 16.50 92.50Q39 126 66 145Q93 164 120 180.50Q147 197 168.50 221Q190 245 197 279L200 299Q201 309 217 309M208 456Q214 490 239.50 512Q265 534 301 534Q341 534 363 505.50Q385 477 377 435Q371 400 346 378.50Q321 357 284 357Q244 357 222.50 385Q201 413 208 456Z"  horiz-adv-x="492" vert-adv-y="1000"  />

      
      <glyph glyph-name="unic0" unicode="&#xc0;" d="M569 0L444 0Q427 0 426 16L412 133L187 133L133 13Q129 0 113 0L-24 0Q-46 0-36 21L297 702Q303 715 317 715L463 715Q479 715 482 699L585 18Q588 0 569 0M369 541L365 541Q279 338 250 275L396 275Q392 311 386 369Q380 427 376 470Q372 513 369 541M447 773L365 773Q351 773 344 783L251 915Q244 924 247 930Q250 936 261 936L367 936Q382 936 388 924L459 794Q464 785 460.50 779Q457 773 447 773Z"  horiz-adv-x="630" vert-adv-y="1000"  />

      
      <glyph glyph-name="unic1" unicode="&#xc1;" d="M569 0L444 0Q427 0 426 16L412 133L187 133L133 13Q129 0 113 0L-24 0Q-46 0-36 21L297 702Q303 715 317 715L463 715Q479 715 482 699L585 18Q588 0 569 0M369 541L365 541Q279 338 250 275L396 275Q392 311 386 369Q380 427 376 470Q372 513 369 541M426 773L341 773Q330 773 327 779.50Q324 786 331 795L446 926Q455 936 467 936L579 936Q590 936 593 929Q596 922 588 914L446 781Q436 773 426 773Z"  horiz-adv-x="630" vert-adv-y="1000"  />

      
      <glyph glyph-name="unic2" unicode="&#xc2;" d="M569 0L444 0Q427 0 426 16L412 133L187 133L133 13Q129 0 113 0L-24 0Q-46 0-36 21L297 702Q303 715 317 715L463 715Q479 715 482 699L585 18Q588 0 569 0M369 541L365 541Q279 338 250 275L396 275Q392 311 386 369Q380 427 376 470Q372 513 369 541M333 767L235 767Q224 767 221 774Q218 781 226 789L360 921Q369 930 381 930L474 930Q488 930 495 919L580 788Q585 779 582 773Q579 767 569 767L469 767Q455 767 448 779L413 843L354 777Q344 767 333 767Z"  horiz-adv-x="630" vert-adv-y="1000"  />

      
      <glyph glyph-name="unic3" unicode="&#xc3;" d="M569 0L444 0Q427 0 426 16L412 133L187 133L133 13Q129 0 113 0L-24 0Q-46 0-36 21L297 702Q303 715 317 715L463 715Q479 715 482 699L585 18Q588 0 569 0M369 541L365 541Q279 338 250 275L396 275Q392 311 386 369Q380 427 376 470Q372 513 369 541M582 853Q563 818 531.50 791Q500 764 465 764Q443 764 390 787Q352 803 338 803Q318 803 300 781Q289 769 276 776L226 808Q210 817 219 831Q238 866 269 892Q300 918 336 918Q362 918 410 896Q450 879 462 879Q481 879 500 901Q511 913 524 906L575 874Q590 866 582 853Z"  horiz-adv-x="630" vert-adv-y="1000"  />

      
      <glyph glyph-name="unic4" unicode="&#xc4;" d="M570 0L445 0Q428 0 427 16L413 133L188 133L134 13Q130 0 114 0L-23 0Q-45 0-35 21L298 702Q304 715 318 715L464 715Q480 715 483 699L586 18Q589 0 570 0M370 541L366 541Q280 338 251 275L397 275Q393 311 387 369Q381 427 377 470Q373 513 370 541M377 838Q371 805 348 785Q325 765 293 765Q260 765 243.50 787Q227 809 232 840Q237 872 260.50 892.50Q284 913 316 913Q349 913 365.50 891Q382 869 377 838M589 838Q584 805 561 785Q538 765 505 765Q471 765 454.50 787Q438 809 444 840Q449 873 472 893Q495 913 528 913Q561 913 577.50 891.50Q594 870 589 838Z"  horiz-adv-x="630" vert-adv-y="1000"  />

      
      <glyph glyph-name="unic5" unicode="&#xc5;" d="M569 0L444 0Q427 0 426 16L412 133L187 133L133 13Q129 0 113 0L-24 0Q-46 0-36 21L297 702Q303 715 317 715L463 715Q479 715 482 699L585 18Q588 0 569 0M369 541L365 541Q279 338 250 275L396 275Q392 311 386 369Q380 427 376 470Q372 513 369 541M553 867Q542 814 501.50 784.50Q461 755 397 755Q342 755 309 791Q276 827 286 878Q297 930 337.50 959.50Q378 989 443 989Q497 989 530 953Q563 917 553 867M372 872Q364 830 412 830Q433 830 447.50 841.50Q462 853 466 872Q470 891 459.50 902Q449 913 427 913Q380 913 372 872Z"  horiz-adv-x="630" vert-adv-y="1000"  />

      
      <glyph glyph-name="unic6" unicode="&#xc6;" d="M904 696L885 589Q882 573 867 573L609 573L584 431L809 431Q827 431 824 412L807 308Q804 292 789 292L561 292L535 142L804 142Q823 142 820 123L800 16Q799 0 782 0L370 0Q351 0 354 19L376 138L207 138L132 12Q124 0 111 0L-32 0Q-42 0-45 6Q-48 12-43 21L385 704Q392 715 406 715L888 715Q907 715 904 696M288 280L401 280L450 553L446 553L288 280Z"  horiz-adv-x="883" vert-adv-y="1000"  />

      
      <glyph glyph-name="unic7" unicode="&#xc7;" d="M521 51Q426-7 310-12L288-52Q326-56 345-77.50Q364-99 360-131Q350-219 217-219Q183-219 160-211Q146-208 148-191L153-156Q156-140 174-145Q187-148 202-148Q249-148 256-119Q258-108 250.50-101Q243-94 222-92Q207-90 201-79Q200-77 207-65L236-10Q132 4 81 78.50Q30 153 51 273L86 476Q107 598 191 663Q275 728 400 728Q516 728 597 660Q611 651 599 636L526 550Q517 538 502 547Q450 583 386 583Q327 583 291 550Q255 517 246 460L211 258Q201 197 227 165Q253 133 312 133Q387 133 453 177Q468 186 477 170L524 72Q531 57 521 51Z"  horiz-adv-x="570" vert-adv-y="1000"  />

      
      <glyph glyph-name="unic8" unicode="&#xc8;" d="M594 696L575 588Q572 572 557 572L285 572L260 433L498 433Q516 433 513 414L494 309Q491 293 476 293L235 293L209 144L492 144Q510 144 508 125L490 16Q487 0 471 0L44 0Q26 0 28 19L149 699Q152 715 167 715L578 715Q597 715 594 696M436 773L354 773Q340 773 333 783L240 915Q233 924 236 930Q239 936 250 936L356 936Q371 936 377 924L448 794Q453 785 449.50 779Q446 773 436 773Z"  horiz-adv-x="572" vert-adv-y="1000"  />

      
      <glyph glyph-name="unic9" unicode="&#xc9;" d="M594 696L575 588Q572 572 557 572L285 572L260 433L498 433Q516 433 513 414L494 309Q491 293 476 293L235 293L209 144L492 144Q510 144 508 125L490 16Q487 0 471 0L44 0Q26 0 28 19L149 699Q152 715 167 715L578 715Q597 715 594 696M408 763L323 763Q312 763 309 769.50Q306 776 313 785L428 916Q437 926 449 926L561 926Q572 926 575 919Q578 912 570 904L428 771Q418 763 408 763Z"  horiz-adv-x="572" vert-adv-y="1000"  />

      
      <glyph glyph-name="unica" unicode="&#xca;" d="M594 696L575 588Q572 572 557 572L285 572L260 433L498 433Q516 433 513 414L494 309Q491 293 476 293L235 293L209 144L492 144Q510 144 508 125L490 16Q487 0 471 0L44 0Q26 0 28 19L149 699Q152 715 167 715L578 715Q597 715 594 696M313 769L215 769Q204 769 201 776Q198 783 206 791L340 923Q349 932 361 932L454 932Q468 932 475 921L560 790Q565 781 562 775Q559 769 549 769L449 769Q435 769 428 781L393 845L334 779Q324 769 313 769Z"  horiz-adv-x="572" vert-adv-y="1000"  />

      
      <glyph glyph-name="unicb" unicode="&#xcb;" d="M594 696L575 588Q572 572 557 572L285 572L260 433L498 433Q516 433 513 414L494 309Q491 293 476 293L235 293L209 144L492 144Q510 144 508 125L490 16Q487 0 471 0L44 0Q26 0 28 19L149 699Q152 715 167 715L578 715Q597 715 594 696M364 838Q358 805 335 785Q312 765 280 765Q247 765 230.50 787Q214 809 219 840Q224 872 247.50 892.50Q271 913 303 913Q336 913 352.50 891Q369 869 364 838M576 838Q571 805 548 785Q525 765 492 765Q458 765 441.50 787Q425 809 431 840Q436 873 459 893Q482 913 515 913Q548 913 564.50 891.50Q581 870 576 838Z"  horiz-adv-x="572" vert-adv-y="1000"  />

      
      <glyph glyph-name="unicc" unicode="&#xcc;" d="M306 696L186 16Q183 0 168 0L44 0Q26 0 28 19L148 699Q151 715 167 715L290 715Q309 715 306 696M298 764L216 764Q202 764 195 774L102 906Q95 915 98 921Q101 927 112 927L218 927Q233 927 239 915L310 785Q315 776 311.50 770Q308 764 298 764Z"  horiz-adv-x="300" vert-adv-y="1000"  />

      
      <glyph glyph-name="unicd" unicode="&#xcd;" d="M306 696L186 16Q183 0 168 0L44 0Q26 0 28 19L148 699Q151 715 167 715L290 715Q309 715 306 696M268 765L183 765Q172 765 169 771.50Q166 778 173 787L288 918Q297 928 309 928L421 928Q432 928 435 921Q438 914 430 906L288 773Q278 765 268 765Z"  horiz-adv-x="300" vert-adv-y="1000"  />

      
      <glyph glyph-name="unice" unicode="&#xce;" d="M184 759L88 759Q77 759 74 766Q71 773 79 781L210 918Q219 927 231 927L301 927Q314 927 321 915L402 780Q407 772 404 765.50Q401 759 391 759L298 759Q283 759 277 772L253 822L205 769Q196 759 184 759M306 696L186 16Q183 0 168 0L44 0Q26 0 28 19L148 699Q151 715 167 715L290 715Q309 715 306 696Z"  horiz-adv-x="300" vert-adv-y="1000"  />

      
      <glyph glyph-name="unicf" unicode="&#xcf;" d="M306 696L186 16Q183 0 168 0L44 0Q26 0 28 19L148 699Q151 715 167 715L290 715Q309 715 306 696M227 838Q221 805 198 785Q175 765 143 765Q110 765 93.50 787Q77 809 82 840Q87 872 110.50 892.50Q134 913 166 913Q199 913 215.50 891Q232 869 227 838M427 838Q423 805 399.50 785Q376 765 343 765Q309 765 293 787Q277 809 282 840Q288 873 311 893Q334 913 366 913Q400 913 416 891.50Q432 870 427 838Z"  horiz-adv-x="300" vert-adv-y="1000"  />

      
      <glyph glyph-name="unid0" unicode="&#xd0;" d="M180 715L416 715Q534 715 600 642Q666 569 641 429L613 264Q589 122 509 61Q429 0 296 0L57 0Q39 0 42 19L94 317L34 317Q16 317 19 335L30 397Q33 412 49 412L110 412L162 699Q164 715 180 715M451 271L482 449Q493 512 472 541Q451 570 398 570L297 570L269 412L360 412Q378 412 375 393L364 332Q363 317 346 317L253 317L222 145L322 145Q375 145 407 175Q439 205 451 271Z"  horiz-adv-x="662" vert-adv-y="1000"  />

      
      <glyph glyph-name="unid1" unicode="&#xd1;" d="M166 0L43 0Q25 0 28 19L148 699Q150 715 166 715L298 715Q315 715 318 701L397 464Q431 355 459 249L464 250Q479 379 504 527L534 699Q537 715 552 715L674 715Q693 715 690 696L570 16Q567 0 551 0L420 0Q406 0 400 14L321 226Q278 338 252 464L248 462Q230 277 210 166L184 16Q181 0 166 0M622 859Q603 824 571.50 797Q540 770 505 770Q483 770 430 793Q392 809 378 809Q358 809 340 787Q329 775 316 782L266 814Q250 823 259 837Q278 872 309 898Q340 924 376 924Q402 924 450 902Q490 885 502 885Q521 885 540 907Q551 919 564 912L615 880Q630 872 622 859Z"  horiz-adv-x="685" vert-adv-y="1000"  />

      
      <glyph glyph-name="unid2" unicode="&#xd2;" d="M607 255Q585 127 500 57Q415-13 280-13Q153-13 91.50 70.50Q30 154 53 289L84 466Q106 589 191 658.50Q276 728 407 728Q535 728 598 647.50Q661 567 638 432L607 255M212 271Q201 208 225 170.50Q249 133 303 133Q361 133 398 167.50Q435 202 446 264L478 447Q489 509 465.50 545.50Q442 582 386 582Q269 582 245 452L212 271M476 773L394 773Q380 773 373 783L280 915Q273 924 276 930Q279 936 290 936L396 936Q411 936 417 924L488 794Q493 785 489.50 779Q486 773 476 773Z"  horiz-adv-x="656" vert-adv-y="1000"  />

      
      <glyph glyph-name="unid3" unicode="&#xd3;" d="M607 255Q585 127 500 57Q415-13 280-13Q153-13 91.50 70.50Q30 154 53 289L84 466Q106 589 191 658.50Q276 728 407 728Q535 728 598 647.50Q661 567 638 432L607 255M212 271Q201 208 225 170.50Q249 133 303 133Q361 133 398 167.50Q435 202 446 264L478 447Q489 509 465.50 545.50Q442 582 386 582Q269 582 245 452L212 271M443 774L358 774Q347 774 344 780.50Q341 787 348 796L463 927Q472 937 484 937L596 937Q607 937 610 930Q613 923 605 915L463 782Q453 774 443 774Z"  horiz-adv-x="656" vert-adv-y="1000"  />

      
      <glyph glyph-name="unid4" unicode="&#xd4;" d="M607 255Q585 127 500 57Q415-13 280-13Q153-13 91.50 70.50Q30 154 53 289L84 466Q106 589 191 658.50Q276 728 407 728Q535 728 598 647.50Q661 567 638 432L607 255M212 271Q201 208 225 170.50Q249 133 303 133Q361 133 398 167.50Q435 202 446 264L478 447Q489 509 465.50 545.50Q442 582 386 582Q269 582 245 452L212 271M350 765L252 765Q241 765 238 772Q235 779 243 787L377 919Q386 928 398 928L491 928Q505 928 512 917L597 786Q602 777 599 771Q596 765 586 765L486 765Q472 765 465 777L430 841L371 775Q361 765 350 765Z"  horiz-adv-x="656" vert-adv-y="1000"  />

      
      <glyph glyph-name="unid5" unicode="&#xd5;" d="M607 255Q585 127 500 57Q415-13 280-13Q153-13 91.50 70.50Q30 154 53 289L84 466Q106 589 191 658.50Q276 728 407 728Q535 728 598 647.50Q661 567 638 432L607 255M212 271Q201 208 225 170.50Q249 133 303 133Q361 133 398 167.50Q435 202 446 264L478 447Q489 509 465.50 545.50Q442 582 386 582Q269 582 245 452L212 271M604 863Q585 828 553.50 801Q522 774 487 774Q465 774 412 797Q374 813 360 813Q340 813 322 791Q311 779 298 786L248 818Q232 827 241 841Q260 876 291 902Q322 928 358 928Q384 928 432 906Q472 889 484 889Q503 889 522 911Q533 923 546 916L597 884Q612 876 604 863Z"  horiz-adv-x="656" vert-adv-y="1000"  />

      
      <glyph glyph-name="unid6" unicode="&#xd6;" d="M607 255Q585 127 500 57Q415-13 280-13Q153-13 91.50 70.50Q30 154 53 289L84 466Q106 589 191 658.50Q276 728 407 728Q535 728 598 647.50Q661 567 638 432L607 255M212 271Q201 208 225 170.50Q249 133 303 133Q361 133 398 167.50Q435 202 446 264L478 447Q489 509 465.50 545.50Q442 582 386 582Q269 582 245 452L212 271M396 847Q390 814 367 794Q344 774 312 774Q279 774 262.50 796Q246 818 251 849Q256 881 279.50 901.50Q303 922 335 922Q368 922 384.50 900Q401 878 396 847M608 847Q603 814 580 794Q557 774 524 774Q490 774 473.50 796Q457 818 463 849Q468 882 491 902Q514 922 547 922Q580 922 596.50 900.50Q613 879 608 847Z"  horiz-adv-x="656" vert-adv-y="1000"  />

      
      <glyph glyph-name="unid7" unicode="&#xd7;" d="M538 580L596 507Q607 494 594 483L423 331L538 184Q548 169 536 160L452 86Q438 72 428 87L313 234L145 86Q131 74 120 88L61 160Q52 173 64 185L234 335L118 483Q108 498 120 508L204 582Q217 594 228 580L344 432L513 582Q526 595 538 580Z"  horiz-adv-x="630" vert-adv-y="1000"  />

      
      <glyph glyph-name="unid8" unicode="&#xd8;" d="M607 255Q585 127 500 57Q415-13 280-13Q221-13 169 8L130-52Q124-64 109-64L23-64Q12-64 9-58Q6-52 13-43L88 74Q30 156 53 289L84 466Q106 589 191 658.50Q276 728 407 728Q468 728 516 708L550 759Q556 771 571 771L657 771Q668 771 671 765Q674 759 667 750L598 646Q661 566 638 432L607 255M212 271Q201 208 225 170.50Q249 133 303 133Q361 133 398 167.50Q435 202 446 264L478 447Q489 509 465.50 545.50Q442 582 386 582Q269 582 245 452L212 271Z"  horiz-adv-x="656" vert-adv-y="1000"  />

      
      <glyph glyph-name="unid9" unicode="&#xd9;" d="M597 247Q576 123 497.50 55.50Q419-12 287-12Q164-12 104.50 67Q45 146 68 284L142 699Q145 715 160 715L286 715Q305 715 302 696L225 266Q214 202 237 168.50Q260 135 310 135Q361 135 394.50 166.50Q428 198 439 259L515 699Q518 715 533 715L659 715Q677 715 675 696L597 247M474 773L392 773Q378 773 371 783L278 915Q271 924 274 930Q277 936 288 936L394 936Q409 936 415 924L486 794Q491 785 487.50 779Q484 773 474 773Z"  horiz-adv-x="665" vert-adv-y="1000"  />

      
      <glyph glyph-name="unida" unicode="&#xda;" d="M597 247Q576 123 497.50 55.50Q419-12 287-12Q164-12 104.50 67Q45 146 68 284L142 699Q145 715 160 715L286 715Q305 715 302 696L225 266Q214 202 237 168.50Q260 135 310 135Q361 135 394.50 166.50Q428 198 439 259L515 699Q518 715 533 715L659 715Q677 715 675 696L597 247M446 769L361 769Q350 769 347 775.50Q344 782 351 791L466 922Q475 932 487 932L599 932Q610 932 613 925Q616 918 608 910L466 777Q456 769 446 769Z"  horiz-adv-x="665" vert-adv-y="1000"  />

      
      <glyph glyph-name="unidb" unicode="&#xdb;" d="M597 247Q576 123 497.50 55.50Q419-12 287-12Q164-12 104.50 67Q45 146 68 284L142 699Q145 715 160 715L286 715Q305 715 302 696L225 266Q214 202 237 168.50Q260 135 310 135Q361 135 394.50 166.50Q428 198 439 259L515 699Q518 715 533 715L659 715Q677 715 675 696L597 247M353 773L255 773Q244 773 241 780Q238 787 246 795L380 927Q389 936 401 936L494 936Q508 936 515 925L600 794Q605 785 602 779Q599 773 589 773L489 773Q475 773 468 785L433 849L374 783Q364 773 353 773Z"  horiz-adv-x="665" vert-adv-y="1000"  />

      
      <glyph glyph-name="unidc" unicode="&#xdc;" d="M597 247Q576 123 497.50 55.50Q419-12 287-12Q164-12 104.50 67Q45 146 68 284L142 699Q145 715 160 715L286 715Q305 715 302 696L225 266Q214 202 237 168.50Q260 135 310 135Q361 135 394.50 166.50Q428 198 439 259L515 699Q518 715 533 715L659 715Q677 715 675 696L597 247M402 857Q396 824 373 804Q350 784 318 784Q285 784 268.50 806Q252 828 257 859Q262 891 285.50 911.50Q309 932 341 932Q374 932 390.50 910Q407 888 402 857M614 857Q609 824 586 804Q563 784 530 784Q496 784 479.50 806Q463 828 469 859Q474 892 497 912Q520 932 553 932Q586 932 602.50 910.50Q619 889 614 857Z"  horiz-adv-x="665" vert-adv-y="1000"  />

      
      <glyph glyph-name="unidd" unicode="&#xdd;" d="M308 0L183 0Q164 0 167 19L211 257L78 696Q75 704 79 709.50Q83 715 92 715L222 715Q237 715 240 700L313 405L315 405L485 703Q492 715 505 715L643 715Q653 715 656 709Q659 703 654 694L371 254L326 16Q323 0 308 0M398 765L313 765Q302 765 299 771.50Q296 778 303 787L418 918Q427 928 439 928L551 928Q562 928 565 921Q568 914 560 906L418 773Q408 765 398 765Z"  horiz-adv-x="582" vert-adv-y="1000"  />

      
      <glyph glyph-name="unide" unicode="&#xde;" d="M292 615L378 615Q502 615 562 541Q622 467 601 351Q582 241 507.50 178Q433 115 315 115L202 115L185 16Q182 0 167 0L44 0Q26 0 28 19L148 699Q150 715 166 715L291 715Q309 715 306 696L292 615M318 259Q425 259 442 366Q459 471 354 471L266 471L228 259L318 259Z"  horiz-adv-x="621" vert-adv-y="1000"  />

      
      <glyph glyph-name="unidf" unicode="&#xdf;" d="M187 672Q187 672 221.50 700Q256 728 358 728Q460 728 513 661.50Q566 595 549 502Q542 462 516 427Q490 392 450 376Q495 351 515 305.50Q535 260 523 197Q506 100 441.50 46Q377-8 282-8Q242-8 212 0Q196 4 199 21L216 115Q219 132 237 129Q259 124 277 124Q314 124 341 148Q368 172 374 215Q381 256 361.50 276Q342 296 303 296L268 296Q249 296 252 315L269 411Q272 426 288 426L325 426Q353 426 374.50 449.50Q396 473 402 511Q409 550 392 573Q375 596 342 596Q264 596 246 496L160 16Q157 0 142 0L26 0Q8 0 11 19L99 509Q118 616 187 672Z"  horiz-adv-x="567" vert-adv-y="1000"  />

      
      <glyph glyph-name="unie0" unicode="&#xe0;" d="M406 22Q306-13 198-13Q95-13 43.50 40Q-8 93 7 176Q32 316 234 316Q279 316 319 308L321 324Q328 363 313 381.50Q298 400 253 400Q183 400 134 377Q117 369 111 385L80 467Q75 482 83 487Q161 534 287 534Q390 534 438 470Q486 406 466 294L421 41Q418 26 406 22M156 168Q151 140 167 126Q183 112 217 112Q250 112 286 120L300 207Q267 214 236 214Q164 214 156 168M293 738L356 608Q360 599 356.50 593.50Q353 588 344 588L275 588Q261 588 254 599L169 730Q163 738 166.50 744.50Q170 751 180 751L273 751Q286 751 293 738Z"  horiz-adv-x="505" vert-adv-y="1000"  />

      
      <glyph glyph-name="unie1" unicode="&#xe1;" d="M406 22Q306-13 198-13Q95-13 43.50 40Q-8 93 7 176Q32 316 234 316Q279 316 319 308L321 324Q328 363 313 381.50Q298 400 253 400Q183 400 134 377Q117 369 111 385L80 467Q75 482 83 487Q161 534 287 534Q390 534 438 470Q486 406 466 294L421 41Q418 26 406 22M156 168Q151 140 167 126Q183 112 217 112Q250 112 286 120L300 207Q267 214 236 214Q164 214 156 168M312 585L234 585Q223 585 220 591.50Q217 598 224 606L331 738Q340 748 353 748L457 748Q468 748 471 741Q474 734 466 726L333 594Q325 585 312 585Z"  horiz-adv-x="505" vert-adv-y="1000"  />

      
      <glyph glyph-name="unie2" unicode="&#xe2;" d="M406 22Q306-13 198-13Q95-13 43.50 40Q-8 93 7 176Q32 316 234 316Q279 316 319 308L321 324Q328 363 313 381.50Q298 400 253 400Q183 400 134 377Q117 369 111 385L80 467Q75 482 83 487Q161 534 287 534Q390 534 438 470Q486 406 466 294L421 41Q418 26 406 22M156 168Q151 140 167 126Q183 112 217 112Q250 112 286 120L300 207Q267 214 236 214Q164 214 156 168M385 736L468 606Q478 585 456 585L371 585Q355 585 350 597L313 662L250 594Q241 585 228 585L138 585Q126 585 123.50 591.50Q121 598 129 606L262 739Q271 748 283 748L364 748Q378 748 385 736Z"  horiz-adv-x="505" vert-adv-y="1000"  />

      
      <glyph glyph-name="unie3" unicode="&#xe3;" d="M406 22Q306-13 198-13Q95-13 43.50 40Q-8 93 7 176Q32 316 234 316Q279 316 319 308L321 324Q328 363 313 381.50Q298 400 253 400Q183 400 134 377Q117 369 111 385L80 467Q75 482 83 487Q161 534 287 534Q390 534 438 470Q486 406 466 294L421 41Q418 26 406 22M156 168Q151 140 167 126Q183 112 217 112Q250 112 286 120L300 207Q267 214 236 214Q164 214 156 168M490 666Q442 582 378 582Q348 582 302 605Q264 621 249 621Q226 621 207 599Q194 586 183 594L136 625Q121 635 129 649Q180 732 247 732Q276 732 320 710Q356 693 372 693Q391 693 411 715Q422 729 436 719L483 687Q498 679 490 666Z"  horiz-adv-x="505" vert-adv-y="1000"  />

      
      <glyph glyph-name="unie4" unicode="&#xe4;" d="M406 22Q306-13 198-13Q95-13 43.50 40Q-8 93 7 176Q32 316 234 316Q279 316 319 308L321 324Q328 363 313 381.50Q298 400 253 400Q183 400 134 377Q117 369 111 385L80 467Q75 482 83 487Q161 534 287 534Q390 534 438 470Q486 406 466 294L421 41Q418 26 406 22M156 168Q151 140 167 126Q183 112 217 112Q250 112 286 120L300 207Q267 214 236 214Q164 214 156 168M271 658Q265 625 243.50 606Q222 587 191 587Q160 587 143 608Q126 629 132 663Q138 696 160.50 714.50Q183 733 214 733Q245 733 261.50 712Q278 691 271 658M479 658Q473 625 452 606Q431 587 400 587Q369 587 351.50 607.50Q334 628 340 663Q346 696 368.50 714.50Q391 733 422 733Q453 733 469.50 712Q486 691 479 658Z"  horiz-adv-x="505" vert-adv-y="1000"  />

      
      <glyph glyph-name="unie5" unicode="&#xe5;" d="M406 22Q306-13 198-13Q95-13 43.50 40Q-8 93 7 176Q32 316 234 316Q279 316 319 308L321 324Q328 363 313 381.50Q298 400 253 400Q183 400 134 377Q117 369 111 385L80 467Q75 482 83 487Q161 534 287 534Q390 534 438 470Q486 406 466 294L421 41Q418 26 406 22M156 168Q151 140 167 126Q183 112 217 112Q250 112 286 120L300 207Q267 214 236 214Q164 214 156 168M440 680Q429 631 390 602.50Q351 574 293 574Q243 574 211 606Q179 638 188 680Q197 730 236.50 758.50Q276 787 337 787Q386 787 417 755Q448 723 440 680M268 680Q264 662 275 650.50Q286 639 306 639Q349 639 359 680Q363 699 353 710Q343 721 322 721Q302 721 287 710Q272 699 268 680Z"  horiz-adv-x="505" vert-adv-y="1000"  />

      
      <glyph glyph-name="unie6" unicode="&#xe6;" d="M364 28Q284-12 208-12Q102-12 46.50 39Q-9 90 7 172Q35 314 241 314Q284 314 322 307L325 326Q340 405 253 405Q190 405 134 376Q116 368 110 385L77 466Q71 481 85 490Q171 534 278 534Q367 534 418 474Q482 534 574 534Q671 534 722.50 473Q774 412 756 311L740 221Q738 205 722 205L447 205L444 186Q439 147 455 129.50Q471 112 513 112Q584 112 647 151Q663 162 671 146L708 76Q716 61 702 52Q608-12 489-12Q414-12 364 28M154 166Q149 140 166.50 125Q184 110 217 110Q265 110 303 128Q298 154 301 192L304 206Q274 212 238 212Q166 212 154 166M467 329L462 304L614 304L618 328Q625 366 608 386.50Q591 407 556 407Q521 407 497 386.50Q473 366 467 329Z"  horiz-adv-x="781" vert-adv-y="1000"  />

      
      <glyph glyph-name="unie7" unicode="&#xe7;" d="M395 30Q324-10 236-13L221-45Q258-49 278-72.50Q298-96 291-131Q277-210 154-210Q119-210 95-202Q80-199 82-182L86-149Q89-133 107-138Q120-141 135-141Q187-141 191-111Q193-100 185-93.50Q177-87 158-85Q143-83 137-72Q135-70 143-58L167-7Q90 9 52.50 69.50Q15 130 31 219L53 343Q69 435 136.50 484.50Q204 534 302 534Q388 534 454 486Q467 476 457 462L398 386Q388 375 374 383Q338 404 297 404Q217 404 203 327L182 209Q173 164 190.50 140.50Q208 117 246 117Q291 117 340 146Q356 156 364 140L403 54Q411 39 395 30Z"  horiz-adv-x="451" vert-adv-y="1000"  />

      
      <glyph glyph-name="unie8" unicode="&#xe8;" d="M54 342Q71 436 139.50 485Q208 534 303 534Q405 534 459.50 479Q514 424 495 319L478 222Q475 207 460 207L182 207L179 193Q164 114 248 114Q311 114 378 154Q394 165 401 149L442 72Q449 55 436 48Q347-13 227-13Q126-13 68.50 44.50Q11 102 28 197L54 342M346 307L351 332Q357 364 341.50 385.50Q326 407 290 407Q257 407 234.50 388Q212 369 205 334L200 307L346 307M310 735L373 605Q377 596 373.50 590.50Q370 585 361 585L292 585Q278 585 271 596L186 727Q180 735 183.50 741.50Q187 748 197 748L290 748Q304 748 310 735Z"  horiz-adv-x="519" vert-adv-y="1000"  />

      
      <glyph glyph-name="unie9" unicode="&#xe9;" d="M54 342Q71 436 139.50 485Q208 534 303 534Q405 534 459.50 479Q514 424 495 319L478 222Q475 207 460 207L182 207L179 193Q164 114 248 114Q311 114 378 154Q394 165 401 149L442 72Q449 55 436 48Q347-13 227-13Q126-13 68.50 44.50Q11 102 28 197L54 342M346 307L351 332Q357 364 341.50 385.50Q326 407 290 407Q257 407 234.50 388Q212 369 205 334L200 307L346 307M332 585L254 585Q243 585 240 591.50Q237 598 244 606L351 738Q360 748 373 748L477 748Q488 748 491 741Q494 734 486 726L353 594Q345 585 332 585Z"  horiz-adv-x="519" vert-adv-y="1000"  />

      
      <glyph glyph-name="uniea" unicode="&#xea;" d="M54 342Q71 436 139.50 485Q208 534 303 534Q405 534 459.50 479Q514 424 495 319L478 222Q475 207 460 207L182 207L179 193Q164 114 248 114Q311 114 378 154Q394 165 401 149L442 72Q449 55 436 48Q347-13 227-13Q126-13 68.50 44.50Q11 102 28 197L54 342M346 307L351 332Q357 364 341.50 385.50Q326 407 290 407Q257 407 234.50 388Q212 369 205 334L200 307L346 307M404 726L487 596Q492 587 488.50 581Q485 575 475 575L390 575Q374 575 369 587L332 652L269 584Q260 575 247 575L157 575Q145 575 142.50 581.50Q140 588 148 596L281 729Q290 738 302 738L383 738Q397 738 404 726Z"  horiz-adv-x="519" vert-adv-y="1000"  />

      
      <glyph glyph-name="unieb" unicode="&#xeb;" d="M54 342Q71 436 139.50 485Q208 534 303 534Q405 534 459.50 479Q514 424 495 319L478 222Q475 207 460 207L182 207L179 193Q164 114 248 114Q311 114 378 154Q394 165 401 149L442 72Q449 55 436 48Q347-13 227-13Q126-13 68.50 44.50Q11 102 28 197L54 342M346 307L351 332Q357 364 341.50 385.50Q326 407 290 407Q257 407 234.50 388Q212 369 205 334L200 307L346 307M295 651Q289 618 267.50 599Q246 580 215 580Q184 580 167 601Q150 622 156 656Q162 689 184.50 707.50Q207 726 238 726Q269 726 285.50 705Q302 684 295 651M503 651Q497 618 476 599Q455 580 424 580Q393 580 375.50 600.50Q358 621 364 656Q370 689 392.50 707.50Q415 726 446 726Q477 726 493.50 705Q510 684 503 651Z"  horiz-adv-x="519" vert-adv-y="1000"  />

      
      <glyph glyph-name="uniec" unicode="&#xec;" d="M143 0L27 0Q8 0 11 19L97 505Q100 520 116 520L232 520Q251 520 248 502L161 16Q158 0 143 0M176 731L239 601Q243 592 239.50 586.50Q236 581 227 581L158 581Q144 581 137 592L52 723Q46 731 49.50 737.50Q53 744 63 744L156 744Q170 744 176 731Z"  horiz-adv-x="258" vert-adv-y="1000"  />

      
      <glyph glyph-name="unied" unicode="&#xed;" d="M143 0L27 0Q8 0 11 19L97 505Q100 520 116 520L232 520Q251 520 248 502L161 16Q158 0 143 0M202 579L124 579Q113 579 110 585.50Q107 592 114 600L221 732Q230 742 243 742L347 742Q358 742 361 735Q364 728 356 720L223 588Q215 579 202 579Z"  horiz-adv-x="258" vert-adv-y="1000"  />

      
      <glyph glyph-name="uniee" unicode="&#xee;" d="M139 0L27 0Q8 0 11 19L97 502Q99 518 115 518L228 518Q247 518 244 499L158 16Q155 0 139 0M121 573L33 573Q22 573 19 579.50Q16 586 24 595L154 731Q162 740 176 740L255 740Q267 740 276 728L355 594Q360 586 356.50 579.50Q353 573 343 573L252 573Q238 573 232 585L200 649L142 583Q133 573 121 573Z"  horiz-adv-x="255" vert-adv-y="1000"  />

      
      <glyph glyph-name="unief" unicode="&#xef;" d="M143 0L27 0Q8 0 11 19L97 505Q100 520 116 520L232 520Q251 520 248 502L161 16Q158 0 143 0M171 649Q165 616 143.50 597Q122 578 91 578Q60 578 43 599Q26 620 32 654Q38 687 60.50 705.50Q83 724 114 724Q145 724 161.50 703Q178 682 171 649M368 649Q362 616 341 597Q320 578 289 578Q258 578 240.50 598.50Q223 619 229 654Q235 687 257.50 705.50Q280 724 311 724Q342 724 358.50 703Q375 682 368 649Z"  horiz-adv-x="258" vert-adv-y="1000"  />

      
      <glyph glyph-name="unif0" unicode="&#xf0;" d="M506 671L457 635Q548 529 515 341L489 197Q472 98 401.50 42.50Q331-13 221-13Q127-13 67.50 49Q8 111 27 212L42 295Q56 373 119 424.50Q182 476 268 476Q346 476 391 424Q392 500 344 552L277 503Q263 492 253 507L235 534Q225 549 240 559L285 592Q241 610 192 610Q173 610 175 629L191 718Q194 734 209 734Q324 734 405 680L470 728Q483 739 494 723L511 696Q520 682 506 671M177 195Q163 118 240 118Q320 118 334 194L346 263Q354 302 337.50 324Q321 346 284 346Q245 346 220.50 325Q196 304 189 268L177 195Z"  horiz-adv-x="546" vert-adv-y="1000"  />

      
      <glyph glyph-name="unif1" unicode="&#xf1;" d="M142 0L26 0Q7 0 10 19L92 476Q95 489 107 494Q212 534 310 534Q421 534 472 469Q523 404 504 296L454 16Q451 0 435 0L320 0Q302 0 304 19L354 311Q372 403 291 403Q253 403 227 391L161 16Q158 0 142 0M515 668Q467 584 403 584Q373 584 327 607Q289 623 274 623Q251 623 232 601Q219 588 208 596L161 627Q146 637 154 651Q205 734 272 734Q301 734 345 712Q381 695 397 695Q416 695 436 717Q447 731 461 721L508 689Q523 681 515 668Z"  horiz-adv-x="546" vert-adv-y="1000"  />

      
      <glyph glyph-name="unif2" unicode="&#xf2;" d="M482 185Q465 90 398 38.50Q331-13 221-13Q121-13 66.50 52.50Q12 118 29 214L50 338Q67 429 136 481.50Q205 534 309 534Q410 534 465.50 469Q521 404 505 311L482 185M179 199Q172 162 187.50 140Q203 118 238 118Q317 118 330 193L353 321Q359 356 343 379.50Q327 403 292 403Q256 403 232 382.50Q208 362 202 328L179 199M312 735L375 605Q379 596 375.50 590.50Q372 585 363 585L294 585Q280 585 273 596L188 727Q182 735 185.50 741.50Q189 748 199 748L292 748Q306 748 312 735Z"  horiz-adv-x="535" vert-adv-y="1000"  />

      
      <glyph glyph-name="unif3" unicode="&#xf3;" d="M482 185Q465 90 398 38.50Q331-13 221-13Q121-13 66.50 52.50Q12 118 29 214L50 338Q67 429 136 481.50Q205 534 309 534Q410 534 465.50 469Q521 404 505 311L482 185M179 199Q172 162 187.50 140Q203 118 238 118Q317 118 330 193L353 321Q359 356 343 379.50Q327 403 292 403Q256 403 232 382.50Q208 362 202 328L179 199M335 585L257 585Q246 585 243 591.50Q240 598 247 606L354 738Q363 748 376 748L480 748Q491 748 494 741Q497 734 489 726L356 594Q348 585 335 585Z"  horiz-adv-x="535" vert-adv-y="1000"  />

      
      <glyph glyph-name="unif4" unicode="&#xf4;" d="M482 185Q465 90 398 38.50Q331-13 221-13Q121-13 66.50 52.50Q12 118 29 214L50 338Q67 429 136 481.50Q205 534 309 534Q410 534 465.50 469Q521 404 505 311L482 185M179 199Q172 162 187.50 140Q203 118 238 118Q317 118 330 193L353 321Q359 356 343 379.50Q327 403 292 403Q256 403 232 382.50Q208 362 202 328L179 199M407 726L490 596Q500 575 478 575L393 575Q377 575 372 587L335 652L272 584Q263 575 250 575L160 575Q148 575 145.50 581.50Q143 588 151 596L284 729Q293 738 305 738L386 738Q400 738 407 726Z"  horiz-adv-x="535" vert-adv-y="1000"  />

      
      <glyph glyph-name="unif5" unicode="&#xf5;" d="M482 185Q465 90 398 38.50Q331-13 221-13Q121-13 66.50 52.50Q12 118 29 214L50 338Q67 429 136 481.50Q205 534 309 534Q410 534 465.50 469Q521 404 505 311L482 185M179 199Q172 162 187.50 140Q203 118 238 118Q317 118 330 193L353 321Q359 356 343 379.50Q327 403 292 403Q256 403 232 382.50Q208 362 202 328L179 199M507 660Q459 576 395 576Q365 576 319 599Q281 615 266 615Q243 615 224 593Q211 580 200 588L153 619Q138 629 146 643Q197 726 264 726Q293 726 337 704Q373 687 389 687Q408 687 428 709Q439 723 453 713L500 681Q515 673 507 660Z"  horiz-adv-x="535" vert-adv-y="1000"  />

      
      <glyph glyph-name="unif6" unicode="&#xf6;" d="M482 185Q465 90 398 38.50Q331-13 221-13Q121-13 66.50 52.50Q12 118 29 214L50 338Q67 429 136 481.50Q205 534 309 534Q410 534 465.50 469Q521 404 505 311L482 185M179 199Q172 162 187.50 140Q203 118 238 118Q317 118 330 193L353 321Q359 356 343 379.50Q327 403 292 403Q256 403 232 382.50Q208 362 202 328L179 199M300 651Q294 618 272.50 599Q251 580 220 580Q189 580 172 601Q155 622 161 656Q167 689 189.50 707.50Q212 726 243 726Q274 726 290.50 705Q307 684 300 651M508 651Q502 618 481 599Q460 580 429 580Q398 580 380.50 600.50Q363 621 369 656Q375 689 397.50 707.50Q420 726 451 726Q482 726 498.50 705Q515 684 508 651Z"  horiz-adv-x="535" vert-adv-y="1000"  />

      
      <glyph glyph-name="unif7" unicode="&#xf7;" d="M532 264L101 264Q83 264 86 282L105 389Q108 405 123 405L554 405Q572 405 569 386L550 279Q548 264 532 264M381 113Q374 77 348 55Q322 33 285 33Q242 33 220 61.50Q198 90 206 134Q213 170 238.50 191.50Q264 213 301 213Q344 213 366.50 185Q389 157 381 113M453 532Q446 497 420 475.50Q394 454 357 454Q314 454 292 482Q270 510 278 554Q285 590 310.50 612Q336 634 372 634Q416 634 438.50 605.50Q461 577 453 532Z"  horiz-adv-x="630" vert-adv-y="1000"  />

      
      <glyph glyph-name="unif8" unicode="&#xf8;" d="M484 185Q467 90 400 38.50Q333-13 223-13Q181-13 139 2L98-55Q89-65 76-65L5-65Q-19-65-5-45L65 55Q12 119 30 214L52 338Q69 429 138.50 481.50Q208 534 313 534Q359 534 395 519L438 578Q447 588 460 588L531 588Q555 588 541 568L470 467Q524 402 507 311L484 185M181 199Q174 162 190 140Q206 118 240 118Q319 118 332 193L355 321Q362 356 345.50 379.50Q329 403 294 403Q258 403 234 382.50Q210 362 204 328L181 199Z"  horiz-adv-x="536" vert-adv-y="1000"  />

      
      <glyph glyph-name="unif9" unicode="&#xf9;" d="M400 520L517 520Q535 520 532 502L451 45Q448 32 436 27Q339-12 235-12Q125-12 74.50 52.50Q24 117 43 224L93 505Q96 520 111 520L227 520Q245 520 242 502L192 209Q176 118 253 118Q289 118 315 129L382 505Q384 520 400 520M311 735L374 605Q378 596 374.50 590.50Q371 585 362 585L293 585Q279 585 272 596L187 727Q181 735 184.50 741.50Q188 748 198 748L291 748Q304 748 311 735Z"  horiz-adv-x="541" vert-adv-y="1000"  />

      
      <glyph glyph-name="unifa" unicode="&#xfa;" d="M400 520L517 520Q535 520 532 502L451 45Q448 32 436 27Q339-12 235-12Q125-12 74.50 52.50Q24 117 43 224L93 505Q96 520 111 520L227 520Q245 520 242 502L192 209Q176 118 253 118Q289 118 315 129L382 505Q384 520 400 520M349 583L271 583Q260 583 257 589.50Q254 596 261 604L368 736Q377 746 390 746L494 746Q505 746 508 739Q511 732 503 724L370 592Q362 583 349 583Z"  horiz-adv-x="541" vert-adv-y="1000"  />

      
      <glyph glyph-name="unifb" unicode="&#xfb;" d="M400 520L517 520Q535 520 532 502L451 45Q448 32 436 27Q339-12 235-12Q125-12 74.50 52.50Q24 117 43 224L93 505Q96 520 111 520L227 520Q245 520 242 502L192 209Q176 118 253 118Q289 118 315 129L382 505Q384 520 400 520M411 736L494 606Q504 585 482 585L397 585Q381 585 376 597L339 662L276 594Q267 585 254 585L164 585Q152 585 149.50 591.50Q147 598 155 606L288 739Q297 748 309 748L390 748Q404 748 411 736Z"  horiz-adv-x="541" vert-adv-y="1000"  />

      
      <glyph glyph-name="unifc" unicode="&#xfc;" d="M400 520L517 520Q535 520 532 502L451 45Q448 32 436 27Q339-12 235-12Q125-12 74.50 52.50Q24 117 43 224L93 505Q96 520 111 520L227 520Q245 520 242 502L192 209Q176 118 253 118Q289 118 315 129L382 505Q384 520 400 520M303 653Q297 620 275.50 601Q254 582 223 582Q192 582 175 603Q158 624 164 658Q170 691 192.50 709.50Q215 728 246 728Q277 728 293.50 707Q310 686 303 653M511 653Q505 620 484 601Q463 582 432 582Q401 582 383.50 602.50Q366 623 372 658Q378 691 400.50 709.50Q423 728 454 728Q485 728 501.50 707Q518 686 511 653Z"  horiz-adv-x="541" vert-adv-y="1000"  />

      
      <glyph glyph-name="unifd" unicode="&#xfd;" d="M316 159L377 505Q380 520 396 520L511 520Q529 520 527 502L447 49Q423-86 360.50-144Q298-202 176-202Q63-202-4-144Q-17-134-6-120L56-41Q65-28 81-37Q126-69 188-69Q236-69 261.50-46Q287-23 295 29Q250 14 210 14Q118 14 72 76.50Q26 139 43 240L91 505Q92 520 109 520L224 520Q243 520 240 502L190 226Q174 142 249 142Q288 142 316 159M342 576L264 576Q253 576 250 582.50Q247 589 254 597L361 729Q370 739 383 739L487 739Q498 739 501 732Q504 725 496 717L363 585Q355 576 342 576Z"  horiz-adv-x="539" vert-adv-y="1000"  />

      
      <glyph glyph-name="unife" unicode="&#xfe;" d="M250 519Q289 533 327 533Q421 533 473 467Q525 401 508 301L488 186Q473 97 409.50 42Q346-13 257-13Q201-13 160 9L127-176Q125-192 109-192L-7-192Q-25-192-23-173L131 699Q134 715 150 715L266 715Q284 715 282 696L250 519M339 206L357 317Q373 407 293 407Q256 407 227 388L182 133Q207 114 246 114Q323 114 339 206Z"  horiz-adv-x="539" vert-adv-y="1000"  />

      
      <glyph glyph-name="uniff" unicode="&#xff;" d="M316 159L377 505Q380 520 396 520L511 520Q529 520 527 502L447 49Q423-86 360.50-144Q298-202 176-202Q63-202-4-144Q-17-134-6-120L56-41Q65-28 81-37Q126-69 188-69Q236-69 261.50-46Q287-23 295 29Q250 14 210 14Q118 14 72 76.50Q26 139 43 240L91 505Q92 520 109 520L224 520Q243 520 240 502L190 226Q174 142 249 142Q288 142 316 159M301 657Q295 624 273.50 605Q252 586 221 586Q190 586 173 607Q156 628 162 662Q168 695 190.50 713.50Q213 732 244 732Q275 732 291.50 711Q308 690 301 657M509 657Q503 624 482 605Q461 586 430 586Q399 586 381.50 606.50Q364 627 370 662Q376 695 398.50 713.50Q421 732 452 732Q483 732 499.50 711Q516 690 509 657Z"  horiz-adv-x="539" vert-adv-y="1000"  />

      
      <glyph glyph-name="uni0100" unicode="&#x0100;" d="M569 0L444 0Q427 0 426 16L412 133L187 133L133 13Q129 0 113 0L-24 0Q-46 0-36 21L297 702Q303 715 317 715L463 715Q479 715 482 699L585 18Q588 0 569 0M369 541L365 541Q279 338 250 275L396 275Q392 311 386 369Q380 427 376 470Q372 513 369 541M539 786L255 786Q247 786 242.50 791.50Q238 797 240 805L254 879Q257 895 272 895L556 895Q574 895 571 876L557 802Q555 786 539 786Z"  horiz-adv-x="630" vert-adv-y="1000"  />

      
      <glyph glyph-name="uni0101" unicode="&#x0101;" d="M406 22Q306-13 198-13Q95-13 43.50 40Q-8 93 7 176Q32 316 234 316Q279 316 319 308L321 324Q328 363 313 381.50Q298 400 253 400Q183 400 134 377Q117 369 111 385L80 467Q75 482 83 487Q161 534 287 534Q390 534 438 470Q486 406 466 294L421 41Q418 26 406 22M156 168Q151 140 167 126Q183 112 217 112Q250 112 286 120L300 207Q267 214 236 214Q164 214 156 168M149 613L162 682Q164 698 180 698L443 698Q461 698 458 679L445 610Q442 594 427 594L165 594Q146 594 149 613Z"  horiz-adv-x="505" vert-adv-y="1000"  />

      
      <glyph glyph-name="uni0102" unicode="&#x0102;" d="M569 0L444 0Q427 0 426 16L412 133L187 133L133 13Q129 0 113 0L-24 0Q-46 0-36 21L297 702Q303 715 317 715L463 715Q479 715 482 699L585 18Q588 0 569 0M369 541L365 541Q279 338 250 275L396 275Q392 311 386 369Q380 427 376 470Q372 513 369 541M589 898Q550 764 392 764Q327 764 285.50 802Q244 840 242 897Q241 911 257 916L341 935Q355 939 360 920Q365 880 411 880Q460 880 480 923Q488 939 501 935L576 916Q595 912 589 898Z"  horiz-adv-x="630" vert-adv-y="1000"  />

      
      <glyph glyph-name="uni0103" unicode="&#x0103;" d="M406 22Q306-13 198-13Q95-13 43.50 40Q-8 93 7 176Q32 316 234 316Q279 316 319 308L321 324Q328 363 313 381.50Q298 400 253 400Q183 400 134 377Q117 369 111 385L80 467Q75 482 83 487Q161 534 287 534Q390 534 438 470Q486 406 466 294L421 41Q418 26 406 22M156 168Q151 140 167 126Q183 112 217 112Q250 112 286 120L300 207Q267 214 236 214Q164 214 156 168M475 717Q455 648 411 615Q367 582 288 582Q226 582 187.50 622Q149 662 151 717Q151 732 167 736L239 748Q254 751 257 732Q261 686 307 686Q355 686 373 735Q378 750 394 748L462 736Q480 733 475 717Z"  horiz-adv-x="505" vert-adv-y="1000"  />

      
      <glyph glyph-name="uni0104" unicode="&#x0104;" d="M565-177Q514-204 462-204Q410-204 384.50-178Q359-152 366-105Q371-76 396.50-47Q422-18 462 0L444 0Q427 0 426 16L412 133L187 133L133 13Q129 0 113 0L-23 0Q-44 0-36 21L298 702Q304 715 318 715L463 715Q479 715 482 699L586 18Q587 7 580.50 3.50Q574 0 557 0Q527-12 505.50-31Q484-50 481-68Q479-82 487-88Q495-94 512-94Q526-94 550-88Q569-82 571-100L576-156Q577-171 565-177M365 541Q279 338 250 275L396 275Q392 311 386 369Q380 427 376 470Q372 513 369 541L365 541Z"  horiz-adv-x="631" vert-adv-y="1000"  />

      
      <glyph glyph-name="uni0105" unicode="&#x0105;" d="M390-176Q340-201 289-201Q235-201 209.50-174.50Q184-148 192-105Q202-47 272-9Q226-13 202-13Q98-13 44 39.50Q-10 92 6 177Q34 316 232 316Q278 316 320 308L323 324Q331 363 315.50 381.50Q300 400 254 400Q193 400 139 375Q122 367 116 384L82 465Q77 480 87 486Q168 534 283 534Q390 534 438.50 471.50Q487 409 467 297L421 36Q420 24 406 17Q313-20 306-68Q305-82 313-87.50Q321-93 337-93Q356-93 376-87Q394-81 396-100L402-155Q403-170 390-176M154 166Q149 139 166.50 125.50Q184 112 218 112Q247 112 287 119L302 205Q269 212 239 212Q162 212 154 166Z"  horiz-adv-x="509" vert-adv-y="1000"  />

      
      <glyph glyph-name="uni0106" unicode="&#x0106;" d="M522 51Q415-13 284-13Q158-13 93.50 63.50Q29 140 52 273L87 476Q108 598 192 663Q276 728 401 728Q517 728 598 660Q612 651 600 636L527 550Q518 538 503 547Q451 583 387 583Q328 583 292 550Q256 517 247 460L212 258Q202 197 228 165Q254 133 313 133Q388 133 454 177Q469 186 478 170L525 72Q532 57 522 51M428 783L343 783Q332 783 329 789.50Q326 796 333 805L448 936Q457 946 469 946L581 946Q592 946 595 939Q598 932 590 924L448 791Q438 783 428 783Z"  horiz-adv-x="570" vert-adv-y="1000"  />

      
      <glyph glyph-name="uni0107" unicode="&#x0107;" d="M395 30Q318-13 223-13Q120-13 66 50.50Q12 114 31 219L53 343Q69 435 136.50 484.50Q204 534 302 534Q388 534 454 486Q467 476 457 462L398 386Q388 375 374 383Q338 404 297 404Q217 404 203 327L182 209Q173 164 190.50 140.50Q208 117 246 117Q291 117 340 146Q356 156 364 140L403 54Q411 39 395 30M313 585L235 585Q224 585 221 591.50Q218 598 225 606L332 738Q341 748 354 748L458 748Q469 748 472 741Q475 734 467 726L334 594Q326 585 313 585Z"  horiz-adv-x="451" vert-adv-y="1000"  />

      
      <glyph glyph-name="uni010A" unicode="&#x010A;" d="M522 51Q415-13 284-13Q158-13 93.50 63.50Q29 140 52 273L87 476Q108 598 192 663Q276 728 401 728Q517 728 598 660Q612 651 600 636L527 550Q518 538 503 547Q451 583 387 583Q328 583 292 550Q256 517 247 460L212 258Q202 197 228 165Q254 133 313 133Q388 133 454 177Q469 186 478 170L525 72Q532 57 522 51M501 855Q495 822 470 801Q445 780 405 780Q367 780 347 805.50Q327 831 333 866Q338 900 364 922Q390 944 426 944Q466 944 487 918.50Q508 893 501 855Z"  horiz-adv-x="570" vert-adv-y="1000"  />

      
      <glyph glyph-name="uni010B" unicode="&#x010B;" d="M395 30Q318-13 223-13Q120-13 66 50.50Q12 114 31 219L53 343Q69 435 136.50 484.50Q204 534 302 534Q388 534 454 486Q467 476 457 462L398 386Q388 375 374 383Q338 404 297 404Q217 404 203 327L182 209Q173 164 190.50 140.50Q208 117 246 117Q291 117 340 146Q356 156 364 140L403 54Q411 39 395 30M391 661Q385 628 361.50 607Q338 586 303 586Q268 586 249 610Q230 634 237 669Q243 701 267.50 721Q292 741 325 741Q360 741 379 718.50Q398 696 391 661Z"  horiz-adv-x="451" vert-adv-y="1000"  />

      
      <glyph glyph-name="uni010C" unicode="&#x010C;" d="M522 51Q415-13 284-13Q158-13 93.50 63.50Q29 140 52 273L87 476Q108 598 192 663Q276 728 401 728Q517 728 598 660Q612 651 600 636L527 550Q518 538 503 547Q451 583 387 583Q328 583 292 550Q256 517 247 460L212 258Q202 197 228 165Q254 133 313 133Q388 133 454 177Q469 186 478 170L525 72Q532 57 522 51M497 944L595 944Q606 944 609 937Q612 930 604 922L470 790Q461 781 449 781L356 781Q342 781 335 792L250 923Q245 932 248 938Q251 944 261 944L361 944Q375 944 382 932L417 868L476 934Q486 944 497 944Z"  horiz-adv-x="570" vert-adv-y="1000"  />

      
      <glyph glyph-name="uni010D" unicode="&#x010D;" d="M395 30Q318-13 223-13Q120-13 66 50.50Q12 114 31 219L53 343Q69 435 136.50 484.50Q204 534 302 534Q388 534 454 486Q467 476 457 462L398 386Q388 375 374 383Q338 404 297 404Q217 404 203 327L182 209Q173 164 190.50 140.50Q208 117 246 117Q291 117 340 146Q356 156 364 140L403 54Q411 39 395 30M234 590L151 720Q146 729 149.50 735Q153 741 163 741L248 741Q264 741 269 729L306 664L369 732Q378 741 391 741L481 741Q493 741 495.50 734.50Q498 728 490 720L357 587Q348 578 336 578L255 578Q241 578 234 590Z"  horiz-adv-x="451" vert-adv-y="1000"  />

      
      <glyph glyph-name="uni010E" unicode="&#x010E;" d="M282 0L43 0Q25 0 28 19L148 699Q150 715 166 715L401 715Q519 715 585 642.50Q651 570 627 429L598 264Q574 122 494.50 61Q415 0 282 0M283 570L208 145L307 145Q414 145 437 271L468 449Q479 513 458 541.50Q437 570 383 570L283 570M478 927L576 927Q587 927 590 920Q593 913 585 905L451 773Q442 764 430 764L337 764Q323 764 316 775L231 906Q226 915 229 921Q232 927 242 927L342 927Q356 927 363 915L398 851L457 917Q467 927 478 927Z"  horiz-adv-x="647" vert-adv-y="1000"  />

      
      <glyph glyph-name="uni010F" unicode="&#x010F;" d="M429 24Q337-13 231-13Q124-13 68 52.50Q12 118 30 219L50 334Q66 424 129 479Q192 534 280 534Q336 534 375 512L409 699Q411 715 427 715L543 715Q561 715 559 696L444 42Q441 28 429 24M181 208Q165 120 244 120Q283 120 308 131L354 388Q328 406 288 406Q216 406 200 315L181 208M642 510L577 510Q556 510 564 530L627 701Q632 715 647 715L730 715Q753 715 742 694L662 523Q656 510 642 510Z"  horiz-adv-x="622" vert-adv-y="1000"  />

      
      <glyph glyph-name="uni0110" unicode="&#x0110;" d="M180 715L416 715Q534 715 600 642Q666 569 641 429L613 264Q589 122 509 61Q429 0 296 0L57 0Q39 0 42 19L94 317L34 317Q16 317 19 335L30 397Q33 412 49 412L110 412L162 699Q164 715 180 715M451 271L482 449Q493 512 472 541Q451 570 398 570L297 570L269 412L360 412Q378 412 375 393L364 332Q363 317 346 317L253 317L222 145L322 145Q375 145 407 175Q439 205 451 271Z"  horiz-adv-x="662" vert-adv-y="1000"  />

      
      <glyph glyph-name="uni0111" unicode="&#x0111;" d="M430 24Q338-13 230-13Q123-13 66.50 54Q10 121 28 219L46 314Q63 401 125.50 455Q188 509 276 509Q332 509 373 487L387 572L274 572Q256 572 259 591L267 635Q270 650 285 650L401 650L410 699Q413 715 428 715L544 715Q563 715 560 696L552 650L607 650Q626 650 623 632L615 588Q612 572 597 572L538 572L445 42Q444 28 430 24M180 208Q172 161 187.50 140.50Q203 120 244 120Q285 120 310 131L350 363Q324 381 284 381Q210 381 195 295L180 208Z"  horiz-adv-x="538" vert-adv-y="1000"  />

      
      <glyph glyph-name="uni0112" unicode="&#x0112;" d="M594 696L575 588Q572 572 557 572L285 572L260 433L498 433Q516 433 513 414L494 309Q491 293 476 293L235 293L209 144L492 144Q510 144 508 125L490 16Q487 0 471 0L44 0Q26 0 28 19L149 699Q152 715 167 715L578 715Q597 715 594 696M526 786L242 786Q234 786 229.50 791.50Q225 797 227 805L241 879Q244 895 259 895L543 895Q561 895 558 876L544 802Q542 786 526 786Z"  horiz-adv-x="572" vert-adv-y="1000"  />

      
      <glyph glyph-name="uni0113" unicode="&#x0113;" d="M54 342Q71 436 139.50 485Q208 534 303 534Q405 534 459.50 479Q514 424 495 319L478 222Q475 207 460 207L182 207L179 193Q164 114 248 114Q311 114 378 154Q394 165 401 149L442 72Q449 55 436 48Q347-13 227-13Q126-13 68.50 44.50Q11 102 28 197L54 342M346 307L351 332Q357 364 341.50 385.50Q326 407 290 407Q257 407 234.50 388Q212 369 205 334L200 307L346 307M171 612L184 681Q186 697 202 697L465 697Q483 697 480 678L467 609Q464 593 449 593L187 593Q168 593 171 612Z"  horiz-adv-x="519" vert-adv-y="1000"  />

      
      <glyph glyph-name="uni0116" unicode="&#x0116;" d="M594 696L575 588Q572 572 557 572L285 572L260 433L498 433Q516 433 513 414L494 309Q491 293 476 293L235 293L209 144L492 144Q510 144 508 125L490 16Q487 0 471 0L44 0Q26 0 28 19L149 699Q152 715 167 715L578 715Q597 715 594 696M476 845Q470 812 445 791Q420 770 380 770Q342 770 322 795.50Q302 821 308 856Q313 890 339 912Q365 934 401 934Q441 934 462 908.50Q483 883 476 845Z"  horiz-adv-x="572" vert-adv-y="1000"  />

      
      <glyph glyph-name="uni0117" unicode="&#x0117;" d="M54 342Q71 436 139.50 485Q208 534 303 534Q405 534 459.50 479Q514 424 495 319L478 222Q475 207 460 207L182 207L179 193Q164 114 248 114Q311 114 378 154Q394 165 401 149L442 72Q449 55 436 48Q347-13 227-13Q126-13 68.50 44.50Q11 102 28 197L54 342M346 307L351 332Q357 364 341.50 385.50Q326 407 290 407Q257 407 234.50 388Q212 369 205 334L200 307L346 307M404 662Q398 629 374.50 608Q351 587 316 587Q281 587 262 611Q243 635 250 670Q256 702 280.50 722Q305 742 338 742Q373 742 392 719.50Q411 697 404 662Z"  horiz-adv-x="519" vert-adv-y="1000"  />

      
      <glyph glyph-name="uni0118" unicode="&#x0118;" d="M594 696L575 588Q572 572 557 572L285 572L260 433L498 433Q516 433 513 414L494 309Q491 293 476 293L235 293L209 144L492 144Q510 144 508 125L490 14Q487 1 474-5Q445-18 425.50-35.50Q406-53 403-69Q402-83 410-89Q418-95 434-95Q454-95 470-89Q488-83 490-101L496-158Q498-172 485-179Q442-203 381-203Q330-203 304.50-177.50Q279-152 286-107Q297-38 391 0L44 0Q26 0 28 19L148 699Q151 715 167 715L579 715Q597 715 594 696Z"  horiz-adv-x="572" vert-adv-y="1000"  />

      
      <glyph glyph-name="uni0119" unicode="&#x0119;" d="M351-176Q301-201 249-201Q197-201 171-175Q145-149 153-104Q162-52 219-13L212-13Q118-9 65 48Q12 105 28 197L54 343Q71 436 138.50 485Q206 534 299 534Q400 534 454.50 479.50Q509 425 490 321L473 222Q470 206 454 206L179 206L177 194Q163 114 244 114Q306 114 373 154Q389 165 397 149L436 76Q444 61 431 51Q394 26 342 6Q311-7 290.50-27Q270-47 267-66Q265-80 273.50-86.50Q282-93 299-93Q318-93 337-87Q355-81 357-100L363-155Q364-170 351-176M202 335L197 305L338 305L343 334Q349 366 335 387.50Q321 409 287 409Q254 409 231 389Q208 369 202 335Z"  horiz-adv-x="514" vert-adv-y="1000"  />

      
      <glyph glyph-name="uni011A" unicode="&#x011A;" d="M594 696L575 588Q572 572 557 572L285 572L260 433L498 433Q516 433 513 414L494 309Q491 293 476 293L235 293L209 144L492 144Q510 144 508 125L490 16Q487 0 471 0L44 0Q26 0 28 19L149 699Q152 715 167 715L578 715Q597 715 594 696M479 928L577 928Q588 928 591 921Q594 914 586 906L452 774Q443 765 431 765L338 765Q324 765 317 776L232 907Q227 916 230 922Q233 928 243 928L343 928Q357 928 364 916L399 852L458 918Q468 928 479 928Z"  horiz-adv-x="572" vert-adv-y="1000"  />

      
      <glyph glyph-name="uni011B" unicode="&#x011B;" d="M54 342Q71 436 139.50 485Q208 534 303 534Q405 534 459.50 479Q514 424 495 319L478 222Q475 207 460 207L182 207L179 193Q164 114 248 114Q311 114 378 154Q394 165 401 149L442 72Q449 55 436 48Q347-13 227-13Q126-13 68.50 44.50Q11 102 28 197L54 342M346 307L351 332Q357 364 341.50 385.50Q326 407 290 407Q257 407 234.50 388Q212 369 205 334L200 307L346 307M254 596L171 726Q166 735 169.50 741Q173 747 183 747L268 747Q284 747 289 735L326 670L389 738Q398 747 411 747L501 747Q513 747 515.50 740.50Q518 734 510 726L377 593Q368 584 356 584L275 584Q261 584 254 596Z"  horiz-adv-x="519" vert-adv-y="1000"  />

      
      <glyph glyph-name="uni011E" unicode="&#x011E;" d="M544 83Q494 39 422.50 13.50Q351-12 276-12Q158-12 94.50 66.50Q31 145 51 263L87 477Q108 597 192.50 662.50Q277 728 399 728Q531 728 623 656Q635 645 625 631L548 544Q539 532 524 540Q464 583 383 583Q328 583 292 551Q256 519 247 462L211 252Q203 200 226.50 167Q250 134 300 134Q366 136 412 161L435 286L329 286Q311 286 314 305L331 400Q333 416 349 416L591 416Q609 416 606 397L554 102Q551 89 544 83M592 909Q553 775 395 775Q330 775 288.50 813Q247 851 245 908Q244 922 260 927L344 946Q358 950 363 931Q368 891 414 891Q463 891 483 934Q491 950 504 946L579 927Q598 923 592 909Z"  horiz-adv-x="629" vert-adv-y="1000"  />

      
      <glyph glyph-name="uni011F" unicode="&#x011F;" d="M449 49Q425-87 364.50-144.50Q304-202 175-202Q64-202-6-142Q-19-132-8-118L53-40Q64-26 77-37Q125-68 188-68Q278-68 297 29Q250 14 208 14Q111 14 63 75.50Q15 137 33 236L50 331Q68 433 138 483.50Q208 534 310 534Q418 534 511 492Q525 484 522 470L449 49M184 223Q170 143 245 143Q292 143 318 162L357 390Q338 402 297 402Q215 402 202 326L184 223M512 718Q492 649 448 616Q404 583 325 583Q263 583 224.50 623Q186 663 188 718Q188 733 204 737L276 749Q291 752 294 733Q298 687 344 687Q392 687 410 736Q415 751 431 749L499 737Q517 734 512 718Z"  horiz-adv-x="539" vert-adv-y="1000"  />

      
      <glyph glyph-name="uni0120" unicode="&#x0120;" d="M544 83Q494 39 422.50 13.50Q351-12 276-12Q158-12 94.50 66.50Q31 145 51 263L87 477Q108 597 192.50 662.50Q277 728 399 728Q531 728 623 656Q635 645 625 631L548 544Q539 532 524 540Q464 583 383 583Q328 583 292 551Q256 519 247 462L211 252Q203 200 226.50 167Q250 134 300 134Q366 136 412 161L435 286L329 286Q311 286 314 305L331 400Q333 416 349 416L591 416Q609 416 606 397L554 102Q551 89 544 83M497 857Q491 824 466 803Q441 782 401 782Q363 782 343 807.50Q323 833 329 868Q334 902 360 924Q386 946 422 946Q462 946 483 920.50Q504 895 497 857Z"  horiz-adv-x="629" vert-adv-y="1000"  />

      
      <glyph glyph-name="uni0121" unicode="&#x0121;" d="M449 49Q425-87 364.50-144.50Q304-202 175-202Q64-202-6-142Q-19-132-8-118L53-40Q64-26 77-37Q125-68 188-68Q278-68 297 29Q250 14 208 14Q111 14 63 75.50Q15 137 33 236L50 331Q68 433 138 483.50Q208 534 310 534Q418 534 511 492Q525 484 522 470L449 49M184 223Q170 143 245 143Q292 143 318 162L357 390Q338 402 297 402Q215 402 202 326L184 223M419 664Q413 631 389.50 610Q366 589 331 589Q296 589 277 613Q258 637 265 672Q271 704 295.50 724Q320 744 353 744Q388 744 407 721.50Q426 699 419 664Z"  horiz-adv-x="539" vert-adv-y="1000"  />

      
      <glyph glyph-name="uni0122" unicode="&#x0122;" d="M544 83Q494 39 422.50 13.50Q351-12 276-12Q158-12 94.50 66.50Q31 145 51 263L87 477Q108 597 192.50 662.50Q277 728 399 728Q531 728 623 656Q635 645 625 631L548 544Q539 532 524 540Q464 583 383 583Q328 583 292 551Q256 519 247 462L211 252Q203 200 226.50 167Q250 134 300 134Q366 136 412 161L435 286L329 286Q311 286 314 305L331 400Q333 416 349 416L591 416Q609 416 606 397L554 102Q551 89 544 83M236-245L155-245Q144-245 139.50-240Q135-235 139-228L215-72Q219-59 237-59L346-59Q357-59 361-64Q365-69 359-77L260-234Q252-245 236-245Z"  horiz-adv-x="629" vert-adv-y="1000"  />

      
      <glyph glyph-name="uni0123" unicode="&#x0123;" d="M449 49Q425-87 364.50-144.50Q304-202 175-202Q64-202-6-142Q-19-132-8-118L53-40Q64-26 77-37Q125-68 188-68Q278-68 297 29Q250 14 208 14Q111 14 63 75.50Q15 137 33 236L50 331Q68 433 138 483.50Q208 534 310 534Q418 534 511 492Q525 484 522 470L449 49M184 223Q170 143 245 143Q292 143 318 162L357 390Q338 402 297 402Q215 402 202 326L184 223M370 585L278 585Q254 585 265 603L355 751Q364 761 379 761L449 761Q472 761 464 744L392 597Q387 585 370 585Z"  horiz-adv-x="539" vert-adv-y="1000"  />

      
      <glyph glyph-name="uni0126" unicode="&#x0126;" d="M673 630L725 630Q744 630 741 611L729 550Q727 534 711 534L656 534L564 16Q562 0 546 0L422 0Q404 0 407 19L455 289L248 289L200 16Q197 0 181 0L58 0Q39 0 42 19L133 534L66 534Q48 534 51 553L62 614Q65 630 80 630L150 630L162 699Q165 715 181 715L304 715Q323 715 320 696L308 630L515 630L527 699Q530 715 545 715L669 715Q687 715 685 696L673 630M274 434L480 434L497 534L291 534L274 434Z"  horiz-adv-x="692" vert-adv-y="1000"  />

      
      </font>
</defs>
</svg>
